<?xml version="1.0" encoding="UTF-8" standalone="no"?>
<svg xmlns="http://www.w3.org/2000/svg"
     xmlns:xlink="http://www.w3.org/1999/xlink"
     width="576px" height="432px" viewBox="0 0 576 432">
<title>glps_renderer figure</title>
<desc>
Creator: GL2PS 1.3.8, (C) 1999-2012 C. Geuzaine
For: Octave
CreationDate: Tue Sep 16 10:06:55 2014
</desc>
<defs>
</defs>
<g shape-rendering="crispEdges">
<polygon fill="#ffffff" points="488.476,384.48 488.476,32.4 488.476,384.48"/>
<polygon fill="#ffffff" points="488.476,32.4 488.476,32.4 488.476,384.48"/>
<polygon fill="#ffffff" points="74.88,32.4 488.476,32.4 74.88,32.4"/>
<polygon fill="#ffffff" points="488.476,32.4 488.476,32.4 74.88,32.4"/>
<polygon fill="#ffffff" points="74.88,384.48 488.476,384.48 74.88,32.4"/>
<polygon fill="#ffffff" points="488.476,384.48 488.476,32.4 74.88,32.4"/>
<polyline fill="none" stroke="#000000" stroke-width="0.5" stroke-dasharray="16,0" points="74.88,384.48 488.476,384.48"/>
<polyline fill="none" stroke="#000000" stroke-width="0.5" stroke-dasharray="16,0" points="74.88,32.4 488.476,32.4"/>
<polyline fill="none" stroke="#000000" stroke-width="0.5" stroke-dasharray="16,0" points="74.88,32.4 488.476,32.4"/>
<polyline fill="none" stroke="#000000" stroke-width="0.5" stroke-dasharray="16,0" points="74.88,384.48 488.476,384.48"/>
<polyline fill="none" stroke="#000000" stroke-width="0.5" stroke-dasharray="16,0" points="74.88,384.48 74.88,32.4"/>
<polyline fill="none" stroke="#000000" stroke-width="0.5" stroke-dasharray="16,0" points="488.476,384.48 488.476,32.4"/>
<polyline fill="none" stroke="#000000" stroke-width="0.5" stroke-dasharray="16,0" points="488.476,384.48 488.476,32.4"/>
<polyline fill="none" stroke="#000000" stroke-width="0.5" stroke-dasharray="16,0" points="74.88,384.48 74.88,32.4 74.88,32.4"/>
<polyline fill="none" stroke="#000000" stroke-width="0.5" stroke-dasharray="16,0" points="488.476,32.4 488.476,32.4"/>
<polyline fill="none" stroke="#000000" stroke-width="0.5" stroke-dasharray="16,0" points="488.476,384.48 488.476,384.48"/>
<polyline fill="none" stroke="#000000" stroke-width="0.5" stroke-dasharray="16,0" points="74.88,384.48 74.88,384.48"/>
<polyline fill="none" stroke="#000000" stroke-width="0.5" stroke-dasharray="0,3,1,3,1,3,1,3,1,0" points="93.6798,384.48 93.6798,32.4"/>
<polyline fill="none" stroke="#000000" stroke-width="0.5" stroke-dasharray="0,3,1,3,1,3,1,3,1,0" points="187.679,384.48 187.679,32.4"/>
<polyline fill="none" stroke="#000000" stroke-width="0.5" stroke-dasharray="0,3,1,3,1,3,1,3,1,0" points="281.678,384.48 281.678,32.4"/>
<polyline fill="none" stroke="#000000" stroke-width="0.5" stroke-dasharray="0,3,1,3,1,3,1,3,1,0" points="375.677,384.48 375.677,32.4"/>
<polyline fill="none" stroke="#000000" stroke-width="0.5" stroke-dasharray="0,3,1,3,1,3,1,3,1,0" points="469.677,384.48 469.677,32.4"/>
<polyline fill="none" stroke="#000000" stroke-width="0.5" stroke-dasharray="16,0" points="93.6798,384.48 93.6798,380.343"/>
<polyline fill="none" stroke="#000000" stroke-width="0.5" stroke-dasharray="16,0" points="93.6798,32.4 93.6798,36.5369"/>
<polyline fill="none" stroke="#000000" stroke-width="0.5" stroke-dasharray="16,0" points="187.679,384.48 187.679,380.343"/>
<polyline fill="none" stroke="#000000" stroke-width="0.5" stroke-dasharray="16,0" points="187.679,32.4 187.679,36.5369"/>
<polyline fill="none" stroke="#000000" stroke-width="0.5" stroke-dasharray="16,0" points="281.678,384.48 281.678,380.343"/>
<polyline fill="none" stroke="#000000" stroke-width="0.5" stroke-dasharray="16,0" points="281.678,32.4 281.678,36.5369"/>
<polyline fill="none" stroke="#000000" stroke-width="0.5" stroke-dasharray="16,0" points="375.677,384.48 375.677,380.343"/>
<polyline fill="none" stroke="#000000" stroke-width="0.5" stroke-dasharray="16,0" points="375.677,32.4 375.677,36.5369"/>
<polyline fill="none" stroke="#000000" stroke-width="0.5" stroke-dasharray="16,0" points="469.677,384.48 469.677,380.343"/>
<polyline fill="none" stroke="#000000" stroke-width="0.5" stroke-dasharray="16,0" points="469.677,32.4 469.677,36.5369"/>
<text fill="#000000" x="93.6798" y="389.481" font-size="10" text-anchor="middle" baseline-shift="-10" font-family="Helvetica">-1</text>
<text fill="#000000" x="187.679" y="389.481" font-size="10" text-anchor="middle" baseline-shift="-10" font-family="Helvetica">-0.5</text>
<text fill="#000000" x="281.678" y="389.481" font-size="10" text-anchor="middle" baseline-shift="-10" font-family="Helvetica">0</text>
<text fill="#000000" x="375.677" y="389.481" font-size="10" text-anchor="middle" baseline-shift="-10" font-family="Helvetica">0.5</text>
<text fill="#000000" x="469.677" y="389.481" font-size="10" text-anchor="middle" baseline-shift="-10" font-family="Helvetica">1</text>
<polyline fill="none" stroke="#000000" stroke-width="0.5" stroke-dasharray="0,3,1,3,1,3,1,3,1,0" points="74.88,368.476 488.476,368.476"/>
<polyline fill="none" stroke="#000000" stroke-width="0.5" stroke-dasharray="0,3,1,3,1,3,1,3,1,0" points="74.88,288.458 488.476,288.458"/>
<polyline fill="none" stroke="#000000" stroke-width="0.5" stroke-dasharray="0,3,1,3,1,3,1,3,1,0" points="74.88,208.44 488.476,208.44"/>
<polyline fill="none" stroke="#000000" stroke-width="0.5" stroke-dasharray="0,3,1,3,1,3,1,3,1,0" points="74.88,128.422 488.476,128.422"/>
<polyline fill="none" stroke="#000000" stroke-width="0.5" stroke-dasharray="0,3,1,3,1,3,1,3,1,0" points="74.88,48.4036 488.476,48.4036"/>
<polyline fill="none" stroke="#000000" stroke-width="0.5" stroke-dasharray="16,0" points="74.88,368.476 79.0119,368.476"/>
<polyline fill="none" stroke="#000000" stroke-width="0.5" stroke-dasharray="16,0" points="488.476,368.476 484.344,368.476"/>
<polyline fill="none" stroke="#000000" stroke-width="0.5" stroke-dasharray="16,0" points="74.88,288.458 79.0119,288.458"/>
<polyline fill="none" stroke="#000000" stroke-width="0.5" stroke-dasharray="16,0" points="488.476,288.458 484.344,288.458"/>
<polyline fill="none" stroke="#000000" stroke-width="0.5" stroke-dasharray="16,0" points="74.88,208.44 79.0119,208.44"/>
<polyline fill="none" stroke="#000000" stroke-width="0.5" stroke-dasharray="16,0" points="488.476,208.44 484.344,208.44"/>
<polyline fill="none" stroke="#000000" stroke-width="0.5" stroke-dasharray="16,0" points="74.88,128.422 79.0119,128.422"/>
<polyline fill="none" stroke="#000000" stroke-width="0.5" stroke-dasharray="16,0" points="488.476,128.422 484.344,128.422"/>
<polyline fill="none" stroke="#000000" stroke-width="0.5" stroke-dasharray="16,0" points="74.88,48.4036 79.0119,48.4036"/>
<polyline fill="none" stroke="#000000" stroke-width="0.5" stroke-dasharray="16,0" points="488.476,48.4036 484.344,48.4036"/>
<text fill="#000000" x="69.8848" y="368.476" font-size="10" text-anchor="end" baseline-shift="-5" font-family="Helvetica">-1</text>
<text fill="#000000" x="69.8848" y="288.458" font-size="10" text-anchor="end" baseline-shift="-5" font-family="Helvetica">-0.5</text>
<text fill="#000000" x="69.8848" y="208.44" font-size="10" text-anchor="end" baseline-shift="-5" font-family="Helvetica">0</text>
<text fill="#000000" x="69.8848" y="128.422" font-size="10" text-anchor="end" baseline-shift="-5" font-family="Helvetica">0.5</text>
<text fill="#000000" x="69.8848" y="48.4037" font-size="10" text-anchor="end" baseline-shift="-5" font-family="Helvetica">1</text>
<text fill="#000000" x="281.678" y="402.481" font-size="10" text-anchor="middle" baseline-shift="-10" font-family="Helvetica">real(x)</text>
<text fill="#000000" x="46.8849" y="208.44" font-size="10" transform="rotate(-90, 46.8849, 208.44)" text-anchor="middle" baseline-shift="0" font-family="Helvetica">imag(x)</text>
<polyline fill="none" stroke="#0000ff" stroke-width="0.5" points="284.678,208.44 284.105,210.203 282.605,211.293 280.751,211.293 279.251,210.203 278.678,208.44 279.251,206.677 280.751,205.587 282.605,205.587 284.105,206.677 284.678,208.44"/>
<polyline fill="none" stroke="#0000ff" stroke-width="0.5" points="284.678,208.44 284.105,210.203 282.605,211.293 280.751,211.293 279.251,210.203 278.678,208.44 279.251,206.677 280.751,205.587 282.605,205.587 284.105,206.677 284.678,208.44"/>
<polyline fill="none" stroke="#0000ff" stroke-width="0.5" points="284.678,208.44 284.105,210.203 282.605,211.293 280.751,211.293 279.251,210.203 278.678,208.44 279.251,206.677 280.751,205.587 282.605,205.587 284.105,206.677 284.678,208.44"/>
<polyline fill="none" stroke="#0000ff" stroke-width="0.5" points="284.678,208.44 284.105,210.203 282.605,211.293 280.751,211.293 279.251,210.203 278.678,208.44 279.251,206.677 280.751,205.587 282.605,205.587 284.105,206.677 284.678,208.44"/>
<polyline fill="none" stroke="#0000ff" stroke-width="0.5" points="284.678,208.44 284.105,210.203 282.605,211.293 280.751,211.293 279.251,210.203 278.678,208.44 279.251,206.677 280.751,205.587 282.605,205.587 284.105,206.677 284.678,208.44"/>
<polyline fill="none" stroke="#0000ff" stroke-width="0.5" points="284.678,208.44 284.105,210.203 282.605,211.293 280.751,211.293 279.251,210.203 278.678,208.44 279.251,206.677 280.751,205.587 282.605,205.587 284.105,206.677 284.678,208.44"/>
<polyline fill="none" stroke="#0000ff" stroke-width="0.5" points="284.678,208.44 284.105,210.203 282.605,211.293 280.751,211.293 279.251,210.203 278.678,208.44 279.251,206.677 280.751,205.587 282.605,205.587 284.105,206.677 284.678,208.44"/>
<polyline fill="none" stroke="#0000ff" stroke-width="0.5" points="284.678,208.44 284.105,210.203 282.605,211.293 280.751,211.293 279.251,210.203 278.678,208.44 279.251,206.677 280.751,205.587 282.605,205.587 284.105,206.677 284.678,208.44"/>
<polyline fill="none" stroke="#0000ff" stroke-width="0.5" points="284.678,208.44 284.105,210.203 282.605,211.293 280.751,211.293 279.251,210.203 278.678,208.44 279.251,206.677 280.751,205.587 282.605,205.587 284.105,206.677 284.678,208.44"/>
<polyline fill="none" stroke="#0000ff" stroke-width="0.5" points="284.678,208.44 284.105,210.203 282.605,211.293 280.751,211.293 279.251,210.203 278.678,208.44 279.251,206.677 280.751,205.587 282.605,205.587 284.105,206.677 284.678,208.44"/>
<polyline fill="none" stroke="#0000ff" stroke-width="0.5" points="284.678,208.44 284.105,210.203 282.605,211.293 280.751,211.293 279.251,210.203 278.678,208.44 279.251,206.677 280.751,205.587 282.605,205.587 284.105,206.677 284.678,208.44"/>
<polyline fill="none" stroke="#0000ff" stroke-width="0.5" points="284.678,208.44 284.105,210.203 282.605,211.293 280.751,211.293 279.251,210.203 278.678,208.44 279.251,206.677 280.751,205.587 282.605,205.587 284.105,206.677 284.678,208.44"/>
<polyline fill="none" stroke="#0000ff" stroke-width="0.5" points="284.678,208.44 284.105,210.203 282.605,211.293 280.751,211.293 279.251,210.203 278.678,208.44 279.251,206.677 280.751,205.587 282.605,205.587 284.105,206.677 284.678,208.44"/>
<polyline fill="none" stroke="#0000ff" stroke-width="0.5" points="284.678,208.44 284.105,210.203 282.605,211.293 280.751,211.293 279.251,210.203 278.678,208.44 279.251,206.677 280.751,205.587 282.605,205.587 284.105,206.677 284.678,208.44"/>
<polyline fill="none" stroke="#0000ff" stroke-width="0.5" points="284.678,208.44 284.105,210.203 282.605,211.293 280.751,211.293 279.251,210.203 278.678,208.44 279.251,206.677 280.751,205.587 282.605,205.587 284.105,206.677 284.678,208.44"/>
<polyline fill="none" stroke="#0000ff" stroke-width="0.5" points="284.678,208.44 284.105,210.203 282.605,211.293 280.751,211.293 279.251,210.203 278.678,208.44 279.251,206.677 280.751,205.587 282.605,205.587 284.105,206.677 284.678,208.44"/>
<polyline fill="none" stroke="#0000ff" stroke-width="0.5" points="284.678,208.44 284.105,210.203 282.605,211.293 280.751,211.293 279.251,210.203 278.678,208.44 279.251,206.677 280.751,205.587 282.605,205.587 284.105,206.677 284.678,208.44"/>
<polyline fill="none" stroke="#0000ff" stroke-width="0.5" points="284.678,208.44 284.105,210.203 282.605,211.293 280.751,211.293 279.251,210.203 278.678,208.44 279.251,206.677 280.751,205.587 282.605,205.587 284.105,206.677 284.678,208.44"/>
<polyline fill="none" stroke="#0000ff" stroke-width="0.5" points="284.678,208.44 284.105,210.203 282.605,211.293 280.751,211.293 279.251,210.203 278.678,208.44 279.251,206.677 280.751,205.587 282.605,205.587 284.105,206.677 284.678,208.44"/>
<polyline fill="none" stroke="#0000ff" stroke-width="0.5" points="284.678,208.44 284.105,210.203 282.605,211.293 280.751,211.293 279.251,210.203 278.678,208.44 279.251,206.677 280.751,205.587 282.605,205.587 284.105,206.677 284.678,208.44"/>
<polyline fill="none" stroke="#0000ff" stroke-width="0.5" points="284.678,208.44 284.105,210.203 282.605,211.293 280.751,211.293 279.251,210.203 278.678,208.44 279.251,206.677 280.751,205.587 282.605,205.587 284.105,206.677 284.678,208.44"/>
<polyline fill="none" stroke="#0000ff" stroke-width="0.5" points="284.678,208.44 284.105,210.203 282.605,211.293 280.751,211.293 279.251,210.203 278.678,208.44 279.251,206.677 280.751,205.587 282.605,205.587 284.105,206.677 284.678,208.44"/>
<polyline fill="none" stroke="#0000ff" stroke-width="0.5" points="284.678,208.44 284.105,210.203 282.605,211.293 280.751,211.293 279.251,210.203 278.678,208.44 279.251,206.677 280.751,205.587 282.605,205.587 284.105,206.677 284.678,208.44"/>
<polyline fill="none" stroke="#0000ff" stroke-width="0.5" points="284.678,208.44 284.105,210.203 282.605,211.293 280.751,211.293 279.251,210.203 278.678,208.44 279.251,206.677 280.751,205.587 282.605,205.587 284.105,206.677 284.678,208.44"/>
<polyline fill="none" stroke="#0000ff" stroke-width="0.5" points="284.678,208.44 284.105,210.203 282.605,211.293 280.751,211.293 279.251,210.203 278.678,208.44 279.251,206.677 280.751,205.587 282.605,205.587 284.105,206.677 284.678,208.44"/>
<polyline fill="none" stroke="#0000ff" stroke-width="0.5" points="284.678,208.44 284.105,210.203 282.605,211.293 280.751,211.293 279.251,210.203 278.678,208.44 279.251,206.677 280.751,205.587 282.605,205.587 284.105,206.677 284.678,208.44"/>
<polyline fill="none" stroke="#0000ff" stroke-width="0.5" points="284.678,208.44 284.105,210.203 282.605,211.293 280.751,211.293 279.251,210.203 278.678,208.44 279.251,206.677 280.751,205.587 282.605,205.587 284.105,206.677 284.678,208.44"/>
<polyline fill="none" stroke="#0000ff" stroke-width="0.5" points="284.678,208.44 284.105,210.203 282.605,211.293 280.751,211.293 279.251,210.203 278.678,208.44 279.251,206.677 280.751,205.587 282.605,205.587 284.105,206.677 284.678,208.44"/>
<polyline fill="none" stroke="#0000ff" stroke-width="0.5" points="284.678,208.44 284.105,210.203 282.605,211.293 280.751,211.293 279.251,210.203 278.678,208.44 279.251,206.677 280.751,205.587 282.605,205.587 284.105,206.677 284.678,208.44"/>
<polyline fill="none" stroke="#0000ff" stroke-width="0.5" points="264.775,49.303 264.202,51.0664 262.702,52.1562 260.848,52.1562 259.348,51.0664 258.775,49.303 259.348,47.5397 260.848,46.4499 262.702,46.4499 264.202,47.5397 264.775,49.303"/>
<polyline fill="none" stroke="#0000ff" stroke-width="0.5" points="284.678,208.44 284.105,210.203 282.605,211.293 280.751,211.293 279.251,210.203 278.678,208.44 279.251,206.677 280.751,205.587 282.605,205.587 284.105,206.677 284.678,208.44"/>
<polyline fill="none" stroke="#0000ff" stroke-width="0.5" points="284.678,208.44 284.105,210.203 282.605,211.293 280.751,211.293 279.251,210.203 278.678,208.44 279.251,206.677 280.751,205.587 282.605,205.587 284.105,206.677 284.678,208.44"/>
<polyline fill="none" stroke="#0000ff" stroke-width="0.5" points="284.678,208.44 284.105,210.203 282.605,211.293 280.751,211.293 279.251,210.203 278.678,208.44 279.251,206.677 280.751,205.587 282.605,205.587 284.105,206.677 284.678,208.44"/>
<polyline fill="none" stroke="#0000ff" stroke-width="0.5" points="284.678,208.44 284.105,210.203 282.605,211.293 280.751,211.293 279.251,210.203 278.678,208.44 279.251,206.677 280.751,205.587 282.605,205.587 284.105,206.677 284.678,208.44"/>
<polyline fill="none" stroke="#0000ff" stroke-width="0.5" points="284.678,208.44 284.105,210.203 282.605,211.293 280.751,211.293 279.251,210.203 278.678,208.44 279.251,206.677 280.751,205.587 282.605,205.587 284.105,206.677 284.678,208.44"/>
<polyline fill="none" stroke="#0000ff" stroke-width="0.5" points="284.678,208.44 284.105,210.203 282.605,211.293 280.751,211.293 279.251,210.203 278.678,208.44 279.251,206.677 280.751,205.587 282.605,205.587 284.105,206.677 284.678,208.44"/>
<polyline fill="none" stroke="#0000ff" stroke-width="0.5" points="284.678,208.44 284.105,210.203 282.605,211.293 280.751,211.293 279.251,210.203 278.678,208.44 279.251,206.677 280.751,205.587 282.605,205.587 284.105,206.677 284.678,208.44"/>
<polyline fill="none" stroke="#0000ff" stroke-width="0.5" points="284.678,208.44 284.105,210.203 282.605,211.293 280.751,211.293 279.251,210.203 278.678,208.44 279.251,206.677 280.751,205.587 282.605,205.587 284.105,206.677 284.678,208.44"/>
<polyline fill="none" stroke="#0000ff" stroke-width="0.5" points="284.678,208.44 284.105,210.203 282.605,211.293 280.751,211.293 279.251,210.203 278.678,208.44 279.251,206.677 280.751,205.587 282.605,205.587 284.105,206.677 284.678,208.44"/>
<polyline fill="none" stroke="#0000ff" stroke-width="0.5" points="284.678,208.44 284.105,210.203 282.605,211.293 280.751,211.293 279.251,210.203 278.678,208.44 279.251,206.677 280.751,205.587 282.605,205.587 284.105,206.677 284.678,208.44"/>
<polyline fill="none" stroke="#0000ff" stroke-width="0.5" points="284.678,208.44 284.105,210.203 282.605,211.293 280.751,211.293 279.251,210.203 278.678,208.44 279.251,206.677 280.751,205.587 282.605,205.587 284.105,206.677 284.678,208.44"/>
<polyline fill="none" stroke="#0000ff" stroke-width="0.5" points="284.678,208.44 284.105,210.203 282.605,211.293 280.751,211.293 279.251,210.203 278.678,208.44 279.251,206.677 280.751,205.587 282.605,205.587 284.105,206.677 284.678,208.44"/>
<polyline fill="none" stroke="#0000ff" stroke-width="0.5" points="284.678,208.44 284.105,210.203 282.605,211.293 280.751,211.293 279.251,210.203 278.678,208.44 279.251,206.677 280.751,205.587 282.605,205.587 284.105,206.677 284.678,208.44"/>
<polyline fill="none" stroke="#0000ff" stroke-width="0.5" points="284.678,208.44 284.105,210.203 282.605,211.293 280.751,211.293 279.251,210.203 278.678,208.44 279.251,206.677 280.751,205.587 282.605,205.587 284.105,206.677 284.678,208.44"/>
<polyline fill="none" stroke="#0000ff" stroke-width="0.5" points="284.678,208.44 284.105,210.203 282.605,211.293 280.751,211.293 279.251,210.203 278.678,208.44 279.251,206.677 280.751,205.587 282.605,205.587 284.105,206.677 284.678,208.44"/>
<polyline fill="none" stroke="#0000ff" stroke-width="0.5" points="284.678,208.44 284.105,210.203 282.605,211.293 280.751,211.293 279.251,210.203 278.678,208.44 279.251,206.677 280.751,205.587 282.605,205.587 284.105,206.677 284.678,208.44"/>
<polyline fill="none" stroke="#0000ff" stroke-width="0.5" points="284.678,208.44 284.105,210.203 282.605,211.293 280.751,211.293 279.251,210.203 278.678,208.44 279.251,206.677 280.751,205.587 282.605,205.587 284.105,206.677 284.678,208.44"/>
<polyline fill="none" stroke="#0000ff" stroke-width="0.5" points="284.678,208.44 284.105,210.203 282.605,211.293 280.751,211.293 279.251,210.203 278.678,208.44 279.251,206.677 280.751,205.587 282.605,205.587 284.105,206.677 284.678,208.44"/>
<polyline fill="none" stroke="#0000ff" stroke-width="0.5" points="284.678,208.44 284.105,210.203 282.605,211.293 280.751,211.293 279.251,210.203 278.678,208.44 279.251,206.677 280.751,205.587 282.605,205.587 284.105,206.677 284.678,208.44"/>
<polyline fill="none" stroke="#0000ff" stroke-width="0.5" points="284.678,208.44 284.105,210.203 282.605,211.293 280.751,211.293 279.251,210.203 278.678,208.44 279.251,206.677 280.751,205.587 282.605,205.587 284.105,206.677 284.678,208.44"/>
<polyline fill="none" stroke="#0000ff" stroke-width="0.5" points="284.678,208.44 284.105,210.203 282.605,211.293 280.751,211.293 279.251,210.203 278.678,208.44 279.251,206.677 280.751,205.587 282.605,205.587 284.105,206.677 284.678,208.44"/>
<polyline fill="none" stroke="#0000ff" stroke-width="0.5" points="284.678,208.44 284.105,210.203 282.605,211.293 280.751,211.293 279.251,210.203 278.678,208.44 279.251,206.677 280.751,205.587 282.605,205.587 284.105,206.677 284.678,208.44"/>
<polyline fill="none" stroke="#0000ff" stroke-width="0.5" points="284.678,208.44 284.105,210.203 282.605,211.293 280.751,211.293 279.251,210.203 278.678,208.44 279.251,206.677 280.751,205.587 282.605,205.587 284.105,206.677 284.678,208.44"/>
<polyline fill="none" stroke="#0000ff" stroke-width="0.5" points="284.678,208.44 284.105,210.203 282.605,211.293 280.751,211.293 279.251,210.203 278.678,208.44 279.251,206.677 280.751,205.587 282.605,205.587 284.105,206.677 284.678,208.44"/>
<polyline fill="none" stroke="#0000ff" stroke-width="0.5" points="284.678,208.44 284.105,210.203 282.605,211.293 280.751,211.293 279.251,210.203 278.678,208.44 279.251,206.677 280.751,205.587 282.605,205.587 284.105,206.677 284.678,208.44"/>
<polyline fill="none" stroke="#0000ff" stroke-width="0.5" points="284.678,208.44 284.105,210.203 282.605,211.293 280.751,211.293 279.251,210.203 278.678,208.44 279.251,206.677 280.751,205.587 282.605,205.587 284.105,206.677 284.678,208.44"/>
<polyline fill="none" stroke="#0000ff" stroke-width="0.5" points="284.678,208.44 284.105,210.203 282.605,211.293 280.751,211.293 279.251,210.203 278.678,208.44 279.251,206.677 280.751,205.587 282.605,205.587 284.105,206.677 284.678,208.44"/>
<polyline fill="none" stroke="#0000ff" stroke-width="0.5" points="284.678,208.44 284.105,210.203 282.605,211.293 280.751,211.293 279.251,210.203 278.678,208.44 279.251,206.677 280.751,205.587 282.605,205.587 284.105,206.677 284.678,208.44"/>
<polyline fill="none" stroke="#0000ff" stroke-width="0.5" points="276.565,48.5527 275.992,50.3161 274.492,51.4059 272.638,51.4059 271.138,50.3161 270.565,48.5527 271.138,46.7894 272.638,45.6996 274.492,45.6996 275.992,46.7894 276.565,48.5527"/>
<polyline fill="none" stroke="#0000ff" stroke-width="0.5" points="284.678,208.44 284.105,210.203 282.605,211.293 280.751,211.293 279.251,210.203 278.678,208.44 279.251,206.677 280.751,205.587 282.605,205.587 284.105,206.677 284.678,208.44"/>
<polyline fill="none" stroke="#0000ff" stroke-width="0.5" points="284.678,208.44 284.105,210.203 282.605,211.293 280.751,211.293 279.251,210.203 278.678,208.44 279.251,206.677 280.751,205.587 282.605,205.587 284.105,206.677 284.678,208.44"/>
<polyline fill="none" stroke="#0000ff" stroke-width="0.5" points="284.678,208.44 284.105,210.203 282.605,211.293 280.751,211.293 279.251,210.203 278.678,208.44 279.251,206.677 280.751,205.587 282.605,205.587 284.105,206.677 284.678,208.44"/>
<polyline fill="none" stroke="#0000ff" stroke-width="0.5" points="284.678,208.44 284.105,210.203 282.605,211.293 280.751,211.293 279.251,210.203 278.678,208.44 279.251,206.677 280.751,205.587 282.605,205.587 284.105,206.677 284.678,208.44"/>
<polyline fill="none" stroke="#0000ff" stroke-width="0.5" points="284.678,208.44 284.105,210.203 282.605,211.293 280.751,211.293 279.251,210.203 278.678,208.44 279.251,206.677 280.751,205.587 282.605,205.587 284.105,206.677 284.678,208.44"/>
<polyline fill="none" stroke="#0000ff" stroke-width="0.5" points="284.678,208.44 284.105,210.203 282.605,211.293 280.751,211.293 279.251,210.203 278.678,208.44 279.251,206.677 280.751,205.587 282.605,205.587 284.105,206.677 284.678,208.44"/>
<polyline fill="none" stroke="#0000ff" stroke-width="0.5" points="284.678,208.44 284.105,210.203 282.605,211.293 280.751,211.293 279.251,210.203 278.678,208.44 279.251,206.677 280.751,205.587 282.605,205.587 284.105,206.677 284.678,208.44"/>
<polyline fill="none" stroke="#0000ff" stroke-width="0.5" points="284.678,208.44 284.105,210.203 282.605,211.293 280.751,211.293 279.251,210.203 278.678,208.44 279.251,206.677 280.751,205.587 282.605,205.587 284.105,206.677 284.678,208.44"/>
<polyline fill="none" stroke="#0000ff" stroke-width="0.5" points="284.678,208.44 284.105,210.203 282.605,211.293 280.751,211.293 279.251,210.203 278.678,208.44 279.251,206.677 280.751,205.587 282.605,205.587 284.105,206.677 284.678,208.44"/>
<polyline fill="none" stroke="#0000ff" stroke-width="0.5" points="284.678,208.44 284.105,210.203 282.605,211.293 280.751,211.293 279.251,210.203 278.678,208.44 279.251,206.677 280.751,205.587 282.605,205.587 284.105,206.677 284.678,208.44"/>
<polyline fill="none" stroke="#0000ff" stroke-width="0.5" points="284.678,208.44 284.105,210.203 282.605,211.293 280.751,211.293 279.251,210.203 278.678,208.44 279.251,206.677 280.751,205.587 282.605,205.587 284.105,206.677 284.678,208.44"/>
<polyline fill="none" stroke="#0000ff" stroke-width="0.5" points="284.678,208.44 284.105,210.203 282.605,211.293 280.751,211.293 279.251,210.203 278.678,208.44 279.251,206.677 280.751,205.587 282.605,205.587 284.105,206.677 284.678,208.44"/>
<polyline fill="none" stroke="#0000ff" stroke-width="0.5" points="284.678,208.44 284.105,210.203 282.605,211.293 280.751,211.293 279.251,210.203 278.678,208.44 279.251,206.677 280.751,205.587 282.605,205.587 284.105,206.677 284.678,208.44"/>
<polyline fill="none" stroke="#0000ff" stroke-width="0.5" points="284.678,208.44 284.105,210.203 282.605,211.293 280.751,211.293 279.251,210.203 278.678,208.44 279.251,206.677 280.751,205.587 282.605,205.587 284.105,206.677 284.678,208.44"/>
<polyline fill="none" stroke="#0000ff" stroke-width="0.5" points="128.606,297.66 128.033,299.423 126.533,300.513 124.679,300.513 123.179,299.423 122.606,297.66 123.179,295.897 124.679,294.807 126.533,294.807 128.033,295.897 128.606,297.66"/>
<polyline fill="none" stroke="#0000ff" stroke-width="0.5" points="284.678,208.44 284.105,210.203 282.605,211.293 280.751,211.293 279.251,210.203 278.678,208.44 279.251,206.677 280.751,205.587 282.605,205.587 284.105,206.677 284.678,208.44"/>
<polyline fill="none" stroke="#0000ff" stroke-width="0.5" points="284.678,208.44 284.105,210.203 282.605,211.293 280.751,211.293 279.251,210.203 278.678,208.44 279.251,206.677 280.751,205.587 282.605,205.587 284.105,206.677 284.678,208.44"/>
<polyline fill="none" stroke="#0000ff" stroke-width="0.5" points="284.678,208.44 284.105,210.203 282.605,211.293 280.751,211.293 279.251,210.203 278.678,208.44 279.251,206.677 280.751,205.587 282.605,205.587 284.105,206.677 284.678,208.44"/>
<polyline fill="none" stroke="#0000ff" stroke-width="0.5" points="284.678,208.44 284.105,210.203 282.605,211.293 280.751,211.293 279.251,210.203 278.678,208.44 279.251,206.677 280.751,205.587 282.605,205.587 284.105,206.677 284.678,208.44"/>
<polyline fill="none" stroke="#0000ff" stroke-width="0.5" points="284.678,208.44 284.105,210.203 282.605,211.293 280.751,211.293 279.251,210.203 278.678,208.44 279.251,206.677 280.751,205.587 282.605,205.587 284.105,206.677 284.678,208.44"/>
<polyline fill="none" stroke="#0000ff" stroke-width="0.5" points="284.678,208.44 284.105,210.203 282.605,211.293 280.751,211.293 279.251,210.203 278.678,208.44 279.251,206.677 280.751,205.587 282.605,205.587 284.105,206.677 284.678,208.44"/>
<polyline fill="none" stroke="#0000ff" stroke-width="0.5" points="470.316,233.719 469.744,235.482 468.244,236.572 466.389,236.572 464.889,235.482 464.316,233.719 464.889,231.955 466.389,230.865 468.244,230.865 469.744,231.955 470.316,233.719"/>
<polyline fill="none" stroke="#0000ff" stroke-width="0.5" points="284.678,208.44 284.105,210.203 282.605,211.293 280.751,211.293 279.251,210.203 278.678,208.44 279.251,206.677 280.751,205.587 282.605,205.587 284.105,206.677 284.678,208.44"/>
<polyline fill="none" stroke="#0000ff" stroke-width="0.5" points="284.678,208.44 284.105,210.203 282.605,211.293 280.751,211.293 279.251,210.203 278.678,208.44 279.251,206.677 280.751,205.587 282.605,205.587 284.105,206.677 284.678,208.44"/>
<polyline fill="none" stroke="#0000ff" stroke-width="0.5" points="284.678,208.44 284.105,210.203 282.605,211.293 280.751,211.293 279.251,210.203 278.678,208.44 279.251,206.677 280.751,205.587 282.605,205.587 284.105,206.677 284.678,208.44"/>
<polyline fill="none" stroke="#0000ff" stroke-width="0.5" points="284.678,208.44 284.105,210.203 282.605,211.293 280.751,211.293 279.251,210.203 278.678,208.44 279.251,206.677 280.751,205.587 282.605,205.587 284.105,206.677 284.678,208.44"/>
<polyline fill="none" stroke="#0000ff" stroke-width="0.5" points="284.678,208.44 284.105,210.203 282.605,211.293 280.751,211.293 279.251,210.203 278.678,208.44 279.251,206.677 280.751,205.587 282.605,205.587 284.105,206.677 284.678,208.44"/>
<polyline fill="none" stroke="#0000ff" stroke-width="0.5" points="284.678,208.44 284.105,210.203 282.605,211.293 280.751,211.293 279.251,210.203 278.678,208.44 279.251,206.677 280.751,205.587 282.605,205.587 284.105,206.677 284.678,208.44"/>
<polyline fill="none" stroke="#0000ff" stroke-width="0.5" points="284.678,208.44 284.105,210.203 282.605,211.293 280.751,211.293 279.251,210.203 278.678,208.44 279.251,206.677 280.751,205.587 282.605,205.587 284.105,206.677 284.678,208.44"/>
<polyline fill="none" stroke="#0000ff" stroke-width="0.5" points="284.678,208.44 284.105,210.203 282.605,211.293 280.751,211.293 279.251,210.203 278.678,208.44 279.251,206.677 280.751,205.587 282.605,205.587 284.105,206.677 284.678,208.44"/>
<polyline fill="none" stroke="#0000ff" stroke-width="0.5" points="284.678,208.44 284.105,210.203 282.605,211.293 280.751,211.293 279.251,210.203 278.678,208.44 279.251,206.677 280.751,205.587 282.605,205.587 284.105,206.677 284.678,208.44"/>
<polyline fill="none" stroke="#0000ff" stroke-width="0.5" points="284.678,208.44 284.105,210.203 282.605,211.293 280.751,211.293 279.251,210.203 278.678,208.44 279.251,206.677 280.751,205.587 282.605,205.587 284.105,206.677 284.678,208.44"/>
<polyline fill="none" stroke="#0000ff" stroke-width="0.5" points="284.678,208.44 284.105,210.203 282.605,211.293 280.751,211.293 279.251,210.203 278.678,208.44 279.251,206.677 280.751,205.587 282.605,205.587 284.105,206.677 284.678,208.44"/>
<polyline fill="none" stroke="#0000ff" stroke-width="0.5" points="284.678,208.44 284.105,210.203 282.605,211.293 280.751,211.293 279.251,210.203 278.678,208.44 279.251,206.677 280.751,205.587 282.605,205.587 284.105,206.677 284.678,208.44"/>
<polyline fill="none" stroke="#0000ff" stroke-width="0.5" points="284.678,208.44 284.105,210.203 282.605,211.293 280.751,211.293 279.251,210.203 278.678,208.44 279.251,206.677 280.751,205.587 282.605,205.587 284.105,206.677 284.678,208.44"/>
<polyline fill="none" stroke="#0000ff" stroke-width="0.5" points="284.678,208.44 284.105,210.203 282.605,211.293 280.751,211.293 279.251,210.203 278.678,208.44 279.251,206.677 280.751,205.587 282.605,205.587 284.105,206.677 284.678,208.44"/>
<polyline fill="none" stroke="#0000ff" stroke-width="0.5" points="284.678,208.44 284.105,210.203 282.605,211.293 280.751,211.293 279.251,210.203 278.678,208.44 279.251,206.677 280.751,205.587 282.605,205.587 284.105,206.677 284.678,208.44"/>
<polyline fill="none" stroke="#0000ff" stroke-width="0.5" points="284.678,208.44 284.105,210.203 282.605,211.293 280.751,211.293 279.251,210.203 278.678,208.44 279.251,206.677 280.751,205.587 282.605,205.587 284.105,206.677 284.678,208.44"/>
<polyline fill="none" stroke="#0000ff" stroke-width="0.5" points="284.678,208.44 284.105,210.203 282.605,211.293 280.751,211.293 279.251,210.203 278.678,208.44 279.251,206.677 280.751,205.587 282.605,205.587 284.105,206.677 284.678,208.44"/>
<polyline fill="none" stroke="#0000ff" stroke-width="0.5" points="284.678,208.44 284.105,210.203 282.605,211.293 280.751,211.293 279.251,210.203 278.678,208.44 279.251,206.677 280.751,205.587 282.605,205.587 284.105,206.677 284.678,208.44"/>
<polyline fill="none" stroke="#0000ff" stroke-width="0.5" points="284.678,208.44 284.105,210.203 282.605,211.293 280.751,211.293 279.251,210.203 278.678,208.44 279.251,206.677 280.751,205.587 282.605,205.587 284.105,206.677 284.678,208.44"/>
<polyline fill="none" stroke="#0000ff" stroke-width="0.5" points="284.678,208.44 284.105,210.203 282.605,211.293 280.751,211.293 279.251,210.203 278.678,208.44 279.251,206.677 280.751,205.587 282.605,205.587 284.105,206.677 284.678,208.44"/>
<polyline fill="none" stroke="#0000ff" stroke-width="0.5" points="284.678,208.44 284.105,210.203 282.605,211.293 280.751,211.293 279.251,210.203 278.678,208.44 279.251,206.677 280.751,205.587 282.605,205.587 284.105,206.677 284.678,208.44"/>
<polyline fill="none" stroke="#0000ff" stroke-width="0.5" points="284.678,208.44 284.105,210.203 282.605,211.293 280.751,211.293 279.251,210.203 278.678,208.44 279.251,206.677 280.751,205.587 282.605,205.587 284.105,206.677 284.678,208.44"/>
<polyline fill="none" stroke="#0000ff" stroke-width="0.5" points="109.807,267.191 109.234,268.955 107.734,270.044 105.879,270.044 104.379,268.955 103.807,267.191 104.379,265.428 105.879,264.338 107.734,264.338 109.234,265.428 109.807,267.191"/>
<polyline fill="none" stroke="#0000ff" stroke-width="0.5" points="284.678,208.44 284.105,210.203 282.605,211.293 280.751,211.293 279.251,210.203 278.678,208.44 279.251,206.677 280.751,205.587 282.605,205.587 284.105,206.677 284.678,208.44"/>
<polyline fill="none" stroke="#0000ff" stroke-width="0.5" points="284.678,208.44 284.105,210.203 282.605,211.293 280.751,211.293 279.251,210.203 278.678,208.44 279.251,206.677 280.751,205.587 282.605,205.587 284.105,206.677 284.678,208.44"/>
<polyline fill="none" stroke="#0000ff" stroke-width="0.5" points="284.678,208.44 284.105,210.203 282.605,211.293 280.751,211.293 279.251,210.203 278.678,208.44 279.251,206.677 280.751,205.587 282.605,205.587 284.105,206.677 284.678,208.44"/>
<polyline fill="none" stroke="#0000ff" stroke-width="0.5" points="284.678,208.44 284.105,210.203 282.605,211.293 280.751,211.293 279.251,210.203 278.678,208.44 279.251,206.677 280.751,205.587 282.605,205.587 284.105,206.677 284.678,208.44"/>
<polyline fill="none" stroke="#0000ff" stroke-width="0.5" points="284.678,208.44 284.105,210.203 282.605,211.293 280.751,211.293 279.251,210.203 278.678,208.44 279.251,206.677 280.751,205.587 282.605,205.587 284.105,206.677 284.678,208.44"/>
<polyline fill="none" stroke="#0000ff" stroke-width="0.5" points="284.678,208.44 284.105,210.203 282.605,211.293 280.751,211.293 279.251,210.203 278.678,208.44 279.251,206.677 280.751,205.587 282.605,205.587 284.105,206.677 284.678,208.44"/>
<polyline fill="none" stroke="#0000ff" stroke-width="0.5" points="284.678,208.44 284.105,210.203 282.605,211.293 280.751,211.293 279.251,210.203 278.678,208.44 279.251,206.677 280.751,205.587 282.605,205.587 284.105,206.677 284.678,208.44"/>
<polyline fill="none" stroke="#0000ff" stroke-width="0.5" points="284.678,208.44 284.105,210.203 282.605,211.293 280.751,211.293 279.251,210.203 278.678,208.44 279.251,206.677 280.751,205.587 282.605,205.587 284.105,206.677 284.678,208.44"/>
<polyline fill="none" stroke="#0000ff" stroke-width="0.5" points="284.678,208.44 284.105,210.203 282.605,211.293 280.751,211.293 279.251,210.203 278.678,208.44 279.251,206.677 280.751,205.587 282.605,205.587 284.105,206.677 284.678,208.44"/>
<polyline fill="none" stroke="#0000ff" stroke-width="0.5" points="284.678,208.44 284.105,210.203 282.605,211.293 280.751,211.293 279.251,210.203 278.678,208.44 279.251,206.677 280.751,205.587 282.605,205.587 284.105,206.677 284.678,208.44"/>
<polyline fill="none" stroke="#0000ff" stroke-width="0.5" points="284.678,208.44 284.105,210.203 282.605,211.293 280.751,211.293 279.251,210.203 278.678,208.44 279.251,206.677 280.751,205.587 282.605,205.587 284.105,206.677 284.678,208.44"/>
<polyline fill="none" stroke="#0000ff" stroke-width="0.5" points="284.678,208.44 284.105,210.203 282.605,211.293 280.751,211.293 279.251,210.203 278.678,208.44 279.251,206.677 280.751,205.587 282.605,205.587 284.105,206.677 284.678,208.44"/>
<polyline fill="none" stroke="#0000ff" stroke-width="0.5" points="284.678,208.44 284.105,210.203 282.605,211.293 280.751,211.293 279.251,210.203 278.678,208.44 279.251,206.677 280.751,205.587 282.605,205.587 284.105,206.677 284.678,208.44"/>
<polyline fill="none" stroke="#0000ff" stroke-width="0.5" points="284.678,208.44 284.105,210.203 282.605,211.293 280.751,211.293 279.251,210.203 278.678,208.44 279.251,206.677 280.751,205.587 282.605,205.587 284.105,206.677 284.678,208.44"/>
<polyline fill="none" stroke="#0000ff" stroke-width="0.5" points="284.678,208.44 284.105,210.203 282.605,211.293 280.751,211.293 279.251,210.203 278.678,208.44 279.251,206.677 280.751,205.587 282.605,205.587 284.105,206.677 284.678,208.44"/>
<polyline fill="none" stroke="#0000ff" stroke-width="0.5" points="284.678,208.44 284.105,210.203 282.605,211.293 280.751,211.293 279.251,210.203 278.678,208.44 279.251,206.677 280.751,205.587 282.605,205.587 284.105,206.677 284.678,208.44"/>
<polyline fill="none" stroke="#0000ff" stroke-width="0.5" points="284.678,208.44 284.105,210.203 282.605,211.293 280.751,211.293 279.251,210.203 278.678,208.44 279.251,206.677 280.751,205.587 282.605,205.587 284.105,206.677 284.678,208.44"/>
<polyline fill="none" stroke="#0000ff" stroke-width="0.5" points="284.678,208.44 284.105,210.203 282.605,211.293 280.751,211.293 279.251,210.203 278.678,208.44 279.251,206.677 280.751,205.587 282.605,205.587 284.105,206.677 284.678,208.44"/>
<polyline fill="none" stroke="#0000ff" stroke-width="0.5" points="284.678,208.44 284.105,210.203 282.605,211.293 280.751,211.293 279.251,210.203 278.678,208.44 279.251,206.677 280.751,205.587 282.605,205.587 284.105,206.677 284.678,208.44"/>
<polyline fill="none" stroke="#0000ff" stroke-width="0.5" points="284.678,208.44 284.105,210.203 282.605,211.293 280.751,211.293 279.251,210.203 278.678,208.44 279.251,206.677 280.751,205.587 282.605,205.587 284.105,206.677 284.678,208.44"/>
<polyline fill="none" stroke="#0000ff" stroke-width="0.5" points="284.678,208.44 284.105,210.203 282.605,211.293 280.751,211.293 279.251,210.203 278.678,208.44 279.251,206.677 280.751,205.587 282.605,205.587 284.105,206.677 284.678,208.44"/>
<polyline fill="none" stroke="#0000ff" stroke-width="0.5" points="284.678,208.44 284.105,210.203 282.605,211.293 280.751,211.293 279.251,210.203 278.678,208.44 279.251,206.677 280.751,205.587 282.605,205.587 284.105,206.677 284.678,208.44"/>
<polyline fill="none" stroke="#0000ff" stroke-width="0.5" points="284.678,208.44 284.105,210.203 282.605,211.293 280.751,211.293 279.251,210.203 278.678,208.44 279.251,206.677 280.751,205.587 282.605,205.587 284.105,206.677 284.678,208.44"/>
<polyline fill="none" stroke="#0000ff" stroke-width="0.5" points="284.678,208.44 284.105,210.203 282.605,211.293 280.751,211.293 279.251,210.203 278.678,208.44 279.251,206.677 280.751,205.587 282.605,205.587 284.105,206.677 284.678,208.44"/>
<polyline fill="none" stroke="#ff0000" stroke-width="0.5" points="278.678,205.44 284.678,211.44"/>
<polyline fill="none" stroke="#ff0000" stroke-width="0.5" points="278.678,211.44 284.678,205.44"/>
<polyline fill="none" stroke="#ff0000" stroke-width="0.5" points="278.678,205.44 284.678,211.44"/>
<polyline fill="none" stroke="#ff0000" stroke-width="0.5" points="278.678,211.44 284.678,205.44"/>
<polyline fill="none" stroke="#ff0000" stroke-width="0.5" points="278.678,205.44 284.678,211.44"/>
<polyline fill="none" stroke="#ff0000" stroke-width="0.5" points="278.678,211.44 284.678,205.44"/>
<polyline fill="none" stroke="#ff0000" stroke-width="0.5" points="278.678,205.44 284.678,211.44"/>
<polyline fill="none" stroke="#ff0000" stroke-width="0.5" points="278.678,211.44 284.678,205.44"/>
<polyline fill="none" stroke="#ff0000" stroke-width="0.5" points="278.678,205.44 284.678,211.44"/>
<polyline fill="none" stroke="#ff0000" stroke-width="0.5" points="278.678,211.44 284.678,205.44"/>
<polyline fill="none" stroke="#ff0000" stroke-width="0.5" points="278.678,205.44 284.678,211.44"/>
<polyline fill="none" stroke="#ff0000" stroke-width="0.5" points="278.678,211.44 284.678,205.44"/>
<polyline fill="none" stroke="#ff0000" stroke-width="0.5" points="278.678,205.44 284.678,211.44"/>
<polyline fill="none" stroke="#ff0000" stroke-width="0.5" points="278.678,211.44 284.678,205.44"/>
<polyline fill="none" stroke="#ff0000" stroke-width="0.5" points="278.678,205.44 284.678,211.44"/>
<polyline fill="none" stroke="#ff0000" stroke-width="0.5" points="278.678,211.44 284.678,205.44"/>
<polyline fill="none" stroke="#ff0000" stroke-width="0.5" points="278.678,205.44 284.678,211.44"/>
<polyline fill="none" stroke="#ff0000" stroke-width="0.5" points="278.678,211.44 284.678,205.44"/>
<polyline fill="none" stroke="#ff0000" stroke-width="0.5" points="278.678,205.44 284.678,211.44"/>
<polyline fill="none" stroke="#ff0000" stroke-width="0.5" points="278.678,211.44 284.678,205.44"/>
<polyline fill="none" stroke="#ff0000" stroke-width="0.5" points="278.678,205.44 284.678,211.44"/>
<polyline fill="none" stroke="#ff0000" stroke-width="0.5" points="278.678,211.44 284.678,205.44"/>
<polyline fill="none" stroke="#ff0000" stroke-width="0.5" points="278.678,205.44 284.678,211.44"/>
<polyline fill="none" stroke="#ff0000" stroke-width="0.5" points="278.678,211.44 284.678,205.44"/>
<polyline fill="none" stroke="#ff0000" stroke-width="0.5" points="278.678,205.44 284.678,211.44"/>
<polyline fill="none" stroke="#ff0000" stroke-width="0.5" points="278.678,211.44 284.678,205.44"/>
<polyline fill="none" stroke="#ff0000" stroke-width="0.5" points="278.678,205.44 284.678,211.44"/>
<polyline fill="none" stroke="#ff0000" stroke-width="0.5" points="278.678,211.44 284.678,205.44"/>
<polyline fill="none" stroke="#ff0000" stroke-width="0.5" points="278.678,205.44 284.678,211.44"/>
<polyline fill="none" stroke="#ff0000" stroke-width="0.5" points="278.678,211.44 284.678,205.44"/>
<polyline fill="none" stroke="#ff0000" stroke-width="0.5" points="278.678,205.44 284.678,211.44"/>
<polyline fill="none" stroke="#ff0000" stroke-width="0.5" points="278.678,211.44 284.678,205.44"/>
<polyline fill="none" stroke="#ff0000" stroke-width="0.5" points="278.678,205.44 284.678,211.44"/>
<polyline fill="none" stroke="#ff0000" stroke-width="0.5" points="278.678,211.44 284.678,205.44"/>
<polyline fill="none" stroke="#ff0000" stroke-width="0.5" points="278.678,205.44 284.678,211.44"/>
<polyline fill="none" stroke="#ff0000" stroke-width="0.5" points="278.678,211.44 284.678,205.44"/>
<polyline fill="none" stroke="#ff0000" stroke-width="0.5" points="278.678,205.44 284.678,211.44"/>
<polyline fill="none" stroke="#ff0000" stroke-width="0.5" points="278.678,211.44 284.678,205.44"/>
<polyline fill="none" stroke="#ff0000" stroke-width="0.5" points="278.678,205.44 284.678,211.44"/>
<polyline fill="none" stroke="#ff0000" stroke-width="0.5" points="278.678,211.44 284.678,205.44"/>
<polyline fill="none" stroke="#ff0000" stroke-width="0.5" points="278.678,205.44 284.678,211.44"/>
<polyline fill="none" stroke="#ff0000" stroke-width="0.5" points="278.678,211.44 284.678,205.44"/>
<polyline fill="none" stroke="#ff0000" stroke-width="0.5" points="278.678,205.44 284.678,211.44"/>
<polyline fill="none" stroke="#ff0000" stroke-width="0.5" points="278.678,211.44 284.678,205.44"/>
<polyline fill="none" stroke="#ff0000" stroke-width="0.5" points="278.678,205.44 284.678,211.44"/>
<polyline fill="none" stroke="#ff0000" stroke-width="0.5" points="278.678,211.44 284.678,205.44"/>
<polyline fill="none" stroke="#ff0000" stroke-width="0.5" points="278.678,205.44 284.678,211.44"/>
<polyline fill="none" stroke="#ff0000" stroke-width="0.5" points="278.678,211.44 284.678,205.44"/>
<polyline fill="none" stroke="#ff0000" stroke-width="0.5" points="278.678,205.44 284.678,211.44"/>
<polyline fill="none" stroke="#ff0000" stroke-width="0.5" points="278.678,211.44 284.678,205.44"/>
<polyline fill="none" stroke="#ff0000" stroke-width="0.5" points="278.678,205.44 284.678,211.44"/>
<polyline fill="none" stroke="#ff0000" stroke-width="0.5" points="278.678,211.44 284.678,205.44"/>
<polyline fill="none" stroke="#ff0000" stroke-width="0.5" points="278.678,205.44 284.678,211.44"/>
<polyline fill="none" stroke="#ff0000" stroke-width="0.5" points="278.678,211.44 284.678,205.44"/>
<polyline fill="none" stroke="#ff0000" stroke-width="0.5" points="278.678,205.44 284.678,211.44"/>
<polyline fill="none" stroke="#ff0000" stroke-width="0.5" points="278.678,211.44 284.678,205.44"/>
<polyline fill="none" stroke="#ff0000" stroke-width="0.5" points="278.678,205.44 284.678,211.44"/>
<polyline fill="none" stroke="#ff0000" stroke-width="0.5" points="278.678,211.44 284.678,205.44"/>
<polyline fill="none" stroke="#ff0000" stroke-width="0.5" points="258.775,46.303 264.775,52.3031"/>
<polyline fill="none" stroke="#ff0000" stroke-width="0.5" points="258.775,52.3031 264.775,46.303"/>
<polyline fill="none" stroke="#ff0000" stroke-width="0.5" points="278.678,205.44 284.678,211.44"/>
<polyline fill="none" stroke="#ff0000" stroke-width="0.5" points="278.678,211.44 284.678,205.44"/>
<polyline fill="none" stroke="#ff0000" stroke-width="0.5" points="278.678,205.44 284.678,211.44"/>
<polyline fill="none" stroke="#ff0000" stroke-width="0.5" points="278.678,211.44 284.678,205.44"/>
<polyline fill="none" stroke="#ff0000" stroke-width="0.5" points="278.678,205.44 284.678,211.44"/>
<polyline fill="none" stroke="#ff0000" stroke-width="0.5" points="278.678,211.44 284.678,205.44"/>
<polyline fill="none" stroke="#ff0000" stroke-width="0.5" points="278.678,205.44 284.678,211.44"/>
<polyline fill="none" stroke="#ff0000" stroke-width="0.5" points="278.678,211.44 284.678,205.44"/>
<polyline fill="none" stroke="#ff0000" stroke-width="0.5" points="278.678,205.44 284.678,211.44"/>
<polyline fill="none" stroke="#ff0000" stroke-width="0.5" points="278.678,211.44 284.678,205.44"/>
<polyline fill="none" stroke="#ff0000" stroke-width="0.5" points="278.678,205.44 284.678,211.44"/>
<polyline fill="none" stroke="#ff0000" stroke-width="0.5" points="278.678,211.44 284.678,205.44"/>
<polyline fill="none" stroke="#ff0000" stroke-width="0.5" points="278.678,205.44 284.678,211.44"/>
<polyline fill="none" stroke="#ff0000" stroke-width="0.5" points="278.678,211.44 284.678,205.44"/>
<polyline fill="none" stroke="#ff0000" stroke-width="0.5" points="278.678,205.44 284.678,211.44"/>
<polyline fill="none" stroke="#ff0000" stroke-width="0.5" points="278.678,211.44 284.678,205.44"/>
<polyline fill="none" stroke="#ff0000" stroke-width="0.5" points="278.678,205.44 284.678,211.44"/>
<polyline fill="none" stroke="#ff0000" stroke-width="0.5" points="278.678,211.44 284.678,205.44"/>
<polyline fill="none" stroke="#ff0000" stroke-width="0.5" points="278.678,205.44 284.678,211.44"/>
<polyline fill="none" stroke="#ff0000" stroke-width="0.5" points="278.678,211.44 284.678,205.44"/>
<polyline fill="none" stroke="#ff0000" stroke-width="0.5" points="278.678,205.44 284.678,211.44"/>
<polyline fill="none" stroke="#ff0000" stroke-width="0.5" points="278.678,211.44 284.678,205.44"/>
<polyline fill="none" stroke="#ff0000" stroke-width="0.5" points="278.678,205.44 284.678,211.44"/>
<polyline fill="none" stroke="#ff0000" stroke-width="0.5" points="278.678,211.44 284.678,205.44"/>
<polyline fill="none" stroke="#ff0000" stroke-width="0.5" points="278.678,205.44 284.678,211.44"/>
<polyline fill="none" stroke="#ff0000" stroke-width="0.5" points="278.678,211.44 284.678,205.44"/>
<polyline fill="none" stroke="#ff0000" stroke-width="0.5" points="278.678,205.44 284.678,211.44"/>
<polyline fill="none" stroke="#ff0000" stroke-width="0.5" points="278.678,211.44 284.678,205.44"/>
<polyline fill="none" stroke="#ff0000" stroke-width="0.5" points="278.678,205.44 284.678,211.44"/>
<polyline fill="none" stroke="#ff0000" stroke-width="0.5" points="278.678,211.44 284.678,205.44"/>
<polyline fill="none" stroke="#ff0000" stroke-width="0.5" points="278.678,205.44 284.678,211.44"/>
<polyline fill="none" stroke="#ff0000" stroke-width="0.5" points="278.678,211.44 284.678,205.44"/>
<polyline fill="none" stroke="#ff0000" stroke-width="0.5" points="278.678,205.44 284.678,211.44"/>
<polyline fill="none" stroke="#ff0000" stroke-width="0.5" points="278.678,211.44 284.678,205.44"/>
<polyline fill="none" stroke="#ff0000" stroke-width="0.5" points="278.678,205.44 284.678,211.44"/>
<polyline fill="none" stroke="#ff0000" stroke-width="0.5" points="278.678,211.44 284.678,205.44"/>
<polyline fill="none" stroke="#ff0000" stroke-width="0.5" points="278.678,205.44 284.678,211.44"/>
<polyline fill="none" stroke="#ff0000" stroke-width="0.5" points="278.678,211.44 284.678,205.44"/>
<polyline fill="none" stroke="#ff0000" stroke-width="0.5" points="278.678,205.44 284.678,211.44"/>
<polyline fill="none" stroke="#ff0000" stroke-width="0.5" points="278.678,211.44 284.678,205.44"/>
<polyline fill="none" stroke="#ff0000" stroke-width="0.5" points="278.678,205.44 284.678,211.44"/>
<polyline fill="none" stroke="#ff0000" stroke-width="0.5" points="278.678,211.44 284.678,205.44"/>
<polyline fill="none" stroke="#ff0000" stroke-width="0.5" points="278.678,205.44 284.678,211.44"/>
<polyline fill="none" stroke="#ff0000" stroke-width="0.5" points="278.678,211.44 284.678,205.44"/>
<polyline fill="none" stroke="#ff0000" stroke-width="0.5" points="278.678,205.44 284.678,211.44"/>
<polyline fill="none" stroke="#ff0000" stroke-width="0.5" points="278.678,211.44 284.678,205.44"/>
<polyline fill="none" stroke="#ff0000" stroke-width="0.5" points="278.678,205.44 284.678,211.44"/>
<polyline fill="none" stroke="#ff0000" stroke-width="0.5" points="278.678,211.44 284.678,205.44"/>
<polyline fill="none" stroke="#ff0000" stroke-width="0.5" points="278.678,205.44 284.678,211.44"/>
<polyline fill="none" stroke="#ff0000" stroke-width="0.5" points="278.678,211.44 284.678,205.44"/>
<polyline fill="none" stroke="#ff0000" stroke-width="0.5" points="278.678,205.44 284.678,211.44"/>
<polyline fill="none" stroke="#ff0000" stroke-width="0.5" points="278.678,211.44 284.678,205.44"/>
<polyline fill="none" stroke="#ff0000" stroke-width="0.5" points="278.678,205.44 284.678,211.44"/>
<polyline fill="none" stroke="#ff0000" stroke-width="0.5" points="278.678,211.44 284.678,205.44"/>
<polyline fill="none" stroke="#ff0000" stroke-width="0.5" points="278.678,205.44 284.678,211.44"/>
<polyline fill="none" stroke="#ff0000" stroke-width="0.5" points="278.678,211.44 284.678,205.44"/>
<polyline fill="none" stroke="#ff0000" stroke-width="0.5" points="270.565,45.5527 276.565,51.5527"/>
<polyline fill="none" stroke="#ff0000" stroke-width="0.5" points="270.565,51.5527 276.565,45.5527"/>
<polyline fill="none" stroke="#ff0000" stroke-width="0.5" points="278.678,205.44 284.678,211.44"/>
<polyline fill="none" stroke="#ff0000" stroke-width="0.5" points="278.678,211.44 284.678,205.44"/>
<polyline fill="none" stroke="#ff0000" stroke-width="0.5" points="278.678,205.44 284.678,211.44"/>
<polyline fill="none" stroke="#ff0000" stroke-width="0.5" points="278.678,211.44 284.678,205.44"/>
<polyline fill="none" stroke="#ff0000" stroke-width="0.5" points="278.678,205.44 284.678,211.44"/>
<polyline fill="none" stroke="#ff0000" stroke-width="0.5" points="278.678,211.44 284.678,205.44"/>
<polyline fill="none" stroke="#ff0000" stroke-width="0.5" points="278.678,205.44 284.678,211.44"/>
<polyline fill="none" stroke="#ff0000" stroke-width="0.5" points="278.678,211.44 284.678,205.44"/>
<polyline fill="none" stroke="#ff0000" stroke-width="0.5" points="278.678,205.44 284.678,211.44"/>
<polyline fill="none" stroke="#ff0000" stroke-width="0.5" points="278.678,211.44 284.678,205.44"/>
<polyline fill="none" stroke="#ff0000" stroke-width="0.5" points="278.678,205.44 284.678,211.44"/>
<polyline fill="none" stroke="#ff0000" stroke-width="0.5" points="278.678,211.44 284.678,205.44"/>
<polyline fill="none" stroke="#ff0000" stroke-width="0.5" points="278.678,205.44 284.678,211.44"/>
<polyline fill="none" stroke="#ff0000" stroke-width="0.5" points="278.678,211.44 284.678,205.44"/>
<polyline fill="none" stroke="#ff0000" stroke-width="0.5" points="278.678,205.44 284.678,211.44"/>
<polyline fill="none" stroke="#ff0000" stroke-width="0.5" points="278.678,211.44 284.678,205.44"/>
<polyline fill="none" stroke="#ff0000" stroke-width="0.5" points="278.678,205.44 284.678,211.44"/>
<polyline fill="none" stroke="#ff0000" stroke-width="0.5" points="278.678,211.44 284.678,205.44"/>
<polyline fill="none" stroke="#ff0000" stroke-width="0.5" points="278.678,205.44 284.678,211.44"/>
<polyline fill="none" stroke="#ff0000" stroke-width="0.5" points="278.678,211.44 284.678,205.44"/>
<polyline fill="none" stroke="#ff0000" stroke-width="0.5" points="278.678,205.44 284.678,211.44"/>
<polyline fill="none" stroke="#ff0000" stroke-width="0.5" points="278.678,211.44 284.678,205.44"/>
<polyline fill="none" stroke="#ff0000" stroke-width="0.5" points="278.678,205.44 284.678,211.44"/>
<polyline fill="none" stroke="#ff0000" stroke-width="0.5" points="278.678,211.44 284.678,205.44"/>
<polyline fill="none" stroke="#ff0000" stroke-width="0.5" points="278.678,205.44 284.678,211.44"/>
<polyline fill="none" stroke="#ff0000" stroke-width="0.5" points="278.678,211.44 284.678,205.44"/>
<polyline fill="none" stroke="#ff0000" stroke-width="0.5" points="278.678,205.44 284.678,211.44"/>
<polyline fill="none" stroke="#ff0000" stroke-width="0.5" points="278.678,211.44 284.678,205.44"/>
<polyline fill="none" stroke="#ff0000" stroke-width="0.5" points="122.606,294.66 128.606,300.66"/>
<polyline fill="none" stroke="#ff0000" stroke-width="0.5" points="122.606,300.66 128.606,294.66"/>
<polyline fill="none" stroke="#ff0000" stroke-width="0.5" points="278.678,205.44 284.678,211.44"/>
<polyline fill="none" stroke="#ff0000" stroke-width="0.5" points="278.678,211.44 284.678,205.44"/>
<polyline fill="none" stroke="#ff0000" stroke-width="0.5" points="278.678,205.44 284.678,211.44"/>
<polyline fill="none" stroke="#ff0000" stroke-width="0.5" points="278.678,211.44 284.678,205.44"/>
<polyline fill="none" stroke="#ff0000" stroke-width="0.5" points="278.678,205.44 284.678,211.44"/>
<polyline fill="none" stroke="#ff0000" stroke-width="0.5" points="278.678,211.44 284.678,205.44"/>
<polyline fill="none" stroke="#ff0000" stroke-width="0.5" points="278.678,205.44 284.678,211.44"/>
<polyline fill="none" stroke="#ff0000" stroke-width="0.5" points="278.678,211.44 284.678,205.44"/>
<polyline fill="none" stroke="#ff0000" stroke-width="0.5" points="278.678,205.44 284.678,211.44"/>
<polyline fill="none" stroke="#ff0000" stroke-width="0.5" points="278.678,211.44 284.678,205.44"/>
<polyline fill="none" stroke="#ff0000" stroke-width="0.5" points="278.678,205.44 284.678,211.44"/>
<polyline fill="none" stroke="#ff0000" stroke-width="0.5" points="278.678,211.44 284.678,205.44"/>
<polyline fill="none" stroke="#ff0000" stroke-width="0.5" points="464.316,230.719 470.316,236.719"/>
<polyline fill="none" stroke="#ff0000" stroke-width="0.5" points="464.316,236.719 470.316,230.719"/>
<polyline fill="none" stroke="#ff0000" stroke-width="0.5" points="278.678,205.44 284.678,211.44"/>
<polyline fill="none" stroke="#ff0000" stroke-width="0.5" points="278.678,211.44 284.678,205.44"/>
<polyline fill="none" stroke="#ff0000" stroke-width="0.5" points="278.678,205.44 284.678,211.44"/>
<polyline fill="none" stroke="#ff0000" stroke-width="0.5" points="278.678,211.44 284.678,205.44"/>
<polyline fill="none" stroke="#ff0000" stroke-width="0.5" points="278.678,205.44 284.678,211.44"/>
<polyline fill="none" stroke="#ff0000" stroke-width="0.5" points="278.678,211.44 284.678,205.44"/>
<polyline fill="none" stroke="#ff0000" stroke-width="0.5" points="278.678,205.44 284.678,211.44"/>
<polyline fill="none" stroke="#ff0000" stroke-width="0.5" points="278.678,211.44 284.678,205.44"/>
<polyline fill="none" stroke="#ff0000" stroke-width="0.5" points="278.678,205.44 284.678,211.44"/>
<polyline fill="none" stroke="#ff0000" stroke-width="0.5" points="278.678,211.44 284.678,205.44"/>
<polyline fill="none" stroke="#ff0000" stroke-width="0.5" points="278.678,205.44 284.678,211.44"/>
<polyline fill="none" stroke="#ff0000" stroke-width="0.5" points="278.678,211.44 284.678,205.44"/>
<polyline fill="none" stroke="#ff0000" stroke-width="0.5" points="278.678,205.44 284.678,211.44"/>
<polyline fill="none" stroke="#ff0000" stroke-width="0.5" points="278.678,211.44 284.678,205.44"/>
<polyline fill="none" stroke="#ff0000" stroke-width="0.5" points="278.678,205.44 284.678,211.44"/>
<polyline fill="none" stroke="#ff0000" stroke-width="0.5" points="278.678,211.44 284.678,205.44"/>
<polyline fill="none" stroke="#ff0000" stroke-width="0.5" points="278.678,205.44 284.678,211.44"/>
<polyline fill="none" stroke="#ff0000" stroke-width="0.5" points="278.678,211.44 284.678,205.44"/>
<polyline fill="none" stroke="#ff0000" stroke-width="0.5" points="278.678,205.44 284.678,211.44"/>
<polyline fill="none" stroke="#ff0000" stroke-width="0.5" points="278.678,211.44 284.678,205.44"/>
<polyline fill="none" stroke="#ff0000" stroke-width="0.5" points="278.678,205.44 284.678,211.44"/>
<polyline fill="none" stroke="#ff0000" stroke-width="0.5" points="278.678,211.44 284.678,205.44"/>
<polyline fill="none" stroke="#ff0000" stroke-width="0.5" points="278.678,205.44 284.678,211.44"/>
<polyline fill="none" stroke="#ff0000" stroke-width="0.5" points="278.678,211.44 284.678,205.44"/>
<polyline fill="none" stroke="#ff0000" stroke-width="0.5" points="278.678,205.44 284.678,211.44"/>
<polyline fill="none" stroke="#ff0000" stroke-width="0.5" points="278.678,211.44 284.678,205.44"/>
<polyline fill="none" stroke="#ff0000" stroke-width="0.5" points="278.678,205.44 284.678,211.44"/>
<polyline fill="none" stroke="#ff0000" stroke-width="0.5" points="278.678,211.44 284.678,205.44"/>
<polyline fill="none" stroke="#ff0000" stroke-width="0.5" points="278.678,205.44 284.678,211.44"/>
<polyline fill="none" stroke="#ff0000" stroke-width="0.5" points="278.678,211.44 284.678,205.44"/>
<polyline fill="none" stroke="#ff0000" stroke-width="0.5" points="278.678,205.44 284.678,211.44"/>
<polyline fill="none" stroke="#ff0000" stroke-width="0.5" points="278.678,211.44 284.678,205.44"/>
<polyline fill="none" stroke="#ff0000" stroke-width="0.5" points="278.678,205.44 284.678,211.44"/>
<polyline fill="none" stroke="#ff0000" stroke-width="0.5" points="278.678,211.44 284.678,205.44"/>
<polyline fill="none" stroke="#ff0000" stroke-width="0.5" points="278.678,205.44 284.678,211.44"/>
<polyline fill="none" stroke="#ff0000" stroke-width="0.5" points="278.678,211.44 284.678,205.44"/>
<polyline fill="none" stroke="#ff0000" stroke-width="0.5" points="278.678,205.44 284.678,211.44"/>
<polyline fill="none" stroke="#ff0000" stroke-width="0.5" points="278.678,211.44 284.678,205.44"/>
<polyline fill="none" stroke="#ff0000" stroke-width="0.5" points="278.678,205.44 284.678,211.44"/>
<polyline fill="none" stroke="#ff0000" stroke-width="0.5" points="278.678,211.44 284.678,205.44"/>
<polyline fill="none" stroke="#ff0000" stroke-width="0.5" points="278.678,205.44 284.678,211.44"/>
<polyline fill="none" stroke="#ff0000" stroke-width="0.5" points="278.678,211.44 284.678,205.44"/>
<polyline fill="none" stroke="#ff0000" stroke-width="0.5" points="278.678,205.44 284.678,211.44"/>
<polyline fill="none" stroke="#ff0000" stroke-width="0.5" points="278.678,211.44 284.678,205.44"/>
<polyline fill="none" stroke="#ff0000" stroke-width="0.5" points="103.807,264.191 109.807,270.191"/>
<polyline fill="none" stroke="#ff0000" stroke-width="0.5" points="103.807,270.191 109.807,264.191"/>
<polyline fill="none" stroke="#ff0000" stroke-width="0.5" points="278.678,205.44 284.678,211.44"/>
<polyline fill="none" stroke="#ff0000" stroke-width="0.5" points="278.678,211.44 284.678,205.44"/>
<polyline fill="none" stroke="#ff0000" stroke-width="0.5" points="278.678,205.44 284.678,211.44"/>
<polyline fill="none" stroke="#ff0000" stroke-width="0.5" points="278.678,211.44 284.678,205.44"/>
<polyline fill="none" stroke="#ff0000" stroke-width="0.5" points="278.678,205.44 284.678,211.44"/>
<polyline fill="none" stroke="#ff0000" stroke-width="0.5" points="278.678,211.44 284.678,205.44"/>
<polyline fill="none" stroke="#ff0000" stroke-width="0.5" points="278.678,205.44 284.678,211.44"/>
<polyline fill="none" stroke="#ff0000" stroke-width="0.5" points="278.678,211.44 284.678,205.44"/>
<polyline fill="none" stroke="#ff0000" stroke-width="0.5" points="278.678,205.44 284.678,211.44"/>
<polyline fill="none" stroke="#ff0000" stroke-width="0.5" points="278.678,211.44 284.678,205.44"/>
<polyline fill="none" stroke="#ff0000" stroke-width="0.5" points="278.678,205.44 284.678,211.44"/>
<polyline fill="none" stroke="#ff0000" stroke-width="0.5" points="278.678,211.44 284.678,205.44"/>
<polyline fill="none" stroke="#ff0000" stroke-width="0.5" points="278.678,205.44 284.678,211.44"/>
<polyline fill="none" stroke="#ff0000" stroke-width="0.5" points="278.678,211.44 284.678,205.44"/>
<polyline fill="none" stroke="#ff0000" stroke-width="0.5" points="278.678,205.44 284.678,211.44"/>
<polyline fill="none" stroke="#ff0000" stroke-width="0.5" points="278.678,211.44 284.678,205.44"/>
<polyline fill="none" stroke="#ff0000" stroke-width="0.5" points="278.678,205.44 284.678,211.44"/>
<polyline fill="none" stroke="#ff0000" stroke-width="0.5" points="278.678,211.44 284.678,205.44"/>
<polyline fill="none" stroke="#ff0000" stroke-width="0.5" points="278.678,205.44 284.678,211.44"/>
<polyline fill="none" stroke="#ff0000" stroke-width="0.5" points="278.678,211.44 284.678,205.44"/>
<polyline fill="none" stroke="#ff0000" stroke-width="0.5" points="278.678,205.44 284.678,211.44"/>
<polyline fill="none" stroke="#ff0000" stroke-width="0.5" points="278.678,211.44 284.678,205.44"/>
<polyline fill="none" stroke="#ff0000" stroke-width="0.5" points="278.678,205.44 284.678,211.44"/>
<polyline fill="none" stroke="#ff0000" stroke-width="0.5" points="278.678,211.44 284.678,205.44"/>
<polyline fill="none" stroke="#ff0000" stroke-width="0.5" points="278.678,205.44 284.678,211.44"/>
<polyline fill="none" stroke="#ff0000" stroke-width="0.5" points="278.678,211.44 284.678,205.44"/>
<polyline fill="none" stroke="#ff0000" stroke-width="0.5" points="278.678,205.44 284.678,211.44"/>
<polyline fill="none" stroke="#ff0000" stroke-width="0.5" points="278.678,211.44 284.678,205.44"/>
<polyline fill="none" stroke="#ff0000" stroke-width="0.5" points="278.678,205.44 284.678,211.44"/>
<polyline fill="none" stroke="#ff0000" stroke-width="0.5" points="278.678,211.44 284.678,205.44"/>
<polyline fill="none" stroke="#ff0000" stroke-width="0.5" points="278.678,205.44 284.678,211.44"/>
<polyline fill="none" stroke="#ff0000" stroke-width="0.5" points="278.678,211.44 284.678,205.44"/>
<polyline fill="none" stroke="#ff0000" stroke-width="0.5" points="278.678,205.44 284.678,211.44"/>
<polyline fill="none" stroke="#ff0000" stroke-width="0.5" points="278.678,211.44 284.678,205.44"/>
<polyline fill="none" stroke="#ff0000" stroke-width="0.5" points="278.678,205.44 284.678,211.44"/>
<polyline fill="none" stroke="#ff0000" stroke-width="0.5" points="278.678,211.44 284.678,205.44"/>
<polyline fill="none" stroke="#ff0000" stroke-width="0.5" points="278.678,205.44 284.678,211.44"/>
<polyline fill="none" stroke="#ff0000" stroke-width="0.5" points="278.678,211.44 284.678,205.44"/>
<polyline fill="none" stroke="#ff0000" stroke-width="0.5" points="278.678,205.44 284.678,211.44"/>
<polyline fill="none" stroke="#ff0000" stroke-width="0.5" points="278.678,211.44 284.678,205.44"/>
<polyline fill="none" stroke="#ff0000" stroke-width="0.5" points="278.678,205.44 284.678,211.44"/>
<polyline fill="none" stroke="#ff0000" stroke-width="0.5" points="278.678,211.44 284.678,205.44"/>
<polyline fill="none" stroke="#ff0000" stroke-width="0.5" points="278.678,205.44 284.678,211.44"/>
<polyline fill="none" stroke="#ff0000" stroke-width="0.5" points="278.678,211.44 284.678,205.44"/>
<polyline fill="none" stroke="#ff0000" stroke-width="0.5" points="278.678,205.44 284.678,211.44"/>
<polyline fill="none" stroke="#ff0000" stroke-width="0.5" points="278.678,211.44 284.678,205.44"/>
<polyline fill="none" stroke="#ff0000" stroke-width="0.5" points="278.678,205.44 284.678,211.44"/>
<polyline fill="none" stroke="#ff0000" stroke-width="0.5" points="278.678,211.44 284.678,205.44"/>
<polygon fill="#0000ff" points="470.486,209.028 469.986,209.391 470.677,208.44"/>
<polygon fill="#0000ff" points="469.986,209.391 469.368,209.391 470.677,208.44"/>
<polygon fill="#0000ff" points="469.368,209.391 468.868,209.028 470.677,208.44"/>
<polygon fill="#0000ff" points="468.868,209.028 468.677,208.44 470.677,208.44"/>
<polygon fill="#0000ff" points="468.677,208.44 468.868,207.852 470.677,208.44"/>
<polygon fill="#0000ff" points="468.868,207.852 469.368,207.489 470.677,208.44"/>
<polygon fill="#0000ff" points="469.368,207.489 469.986,207.489 470.677,208.44"/>
<polygon fill="#0000ff" points="469.986,207.489 470.486,207.852 470.677,208.44"/>
<polygon fill="#0000ff" points="466.637,176.813 466.137,177.176 466.828,176.225"/>
<polygon fill="#0000ff" points="466.137,177.176 465.519,177.176 466.828,176.225"/>
<polygon fill="#0000ff" points="465.519,177.176 465.019,176.813 466.828,176.225"/>
<polygon fill="#0000ff" points="465.019,176.813 464.828,176.225 466.828,176.225"/>
<polygon fill="#0000ff" points="464.828,176.225 465.019,175.637 466.828,176.225"/>
<polygon fill="#0000ff" points="465.019,175.637 465.519,175.274 466.828,176.225"/>
<polygon fill="#0000ff" points="465.519,175.274 466.137,175.274 466.828,176.225"/>
<polygon fill="#0000ff" points="466.137,175.274 466.637,175.637 466.828,176.225"/>
<polygon fill="#0000ff" points="455.25,145.917 454.75,146.28 455.441,145.329"/>
<polygon fill="#0000ff" points="454.75,146.28 454.132,146.28 455.441,145.329"/>
<polygon fill="#0000ff" points="454.132,146.28 453.632,145.917 455.441,145.329"/>
<polygon fill="#0000ff" points="453.632,145.917 453.441,145.329 455.441,145.329"/>
<polygon fill="#0000ff" points="453.441,145.329 453.632,144.741 455.441,145.329"/>
<polygon fill="#0000ff" points="453.632,144.741 454.132,144.378 455.441,145.329"/>
<polygon fill="#0000ff" points="454.132,144.378 454.75,144.378 455.441,145.329"/>
<polygon fill="#0000ff" points="454.75,144.378 455.25,144.741 455.441,145.329"/>
<polygon fill="#0000ff" points="436.789,117.604 436.289,117.967 436.98,117.016"/>
<polygon fill="#0000ff" points="436.289,117.967 435.671,117.967 436.98,117.016"/>
<polygon fill="#0000ff" points="435.671,117.967 435.171,117.604 436.98,117.016"/>
<polygon fill="#0000ff" points="435.171,117.604 434.98,117.016 436.98,117.016"/>
<polygon fill="#0000ff" points="434.98,117.016 435.171,116.429 436.98,117.016"/>
<polygon fill="#0000ff" points="435.171,116.429 435.671,116.065 436.98,117.016"/>
<polygon fill="#0000ff" points="435.671,116.065 436.289,116.065 436.98,117.016"/>
<polygon fill="#0000ff" points="436.289,116.065 436.789,116.429 436.98,117.016"/>
<polygon fill="#0000ff" points="412.012,93.0346 411.512,93.3979 412.203,92.4468"/>
<polygon fill="#0000ff" points="411.512,93.3979 410.894,93.3979 412.203,92.4468"/>
<polygon fill="#0000ff" points="410.894,93.3979 410.394,93.0346 412.203,92.4468"/>
<polygon fill="#0000ff" points="410.394,93.0346 410.203,92.4468 412.203,92.4468"/>
<polygon fill="#0000ff" points="410.203,92.4468 410.394,91.859 412.203,92.4468"/>
<polygon fill="#0000ff" points="410.394,91.859 410.894,91.4957 412.203,92.4468"/>
<polygon fill="#0000ff" points="410.894,91.4957 411.512,91.4957 412.203,92.4468"/>
<polygon fill="#0000ff" points="411.512,91.4957 412.012,91.859 412.203,92.4468"/>
<polygon fill="#0000ff" points="381.932,73.2139 381.432,73.5771 382.123,72.6261"/>
<polygon fill="#0000ff" points="381.432,73.5771 380.814,73.5771 382.123,72.6261"/>
<polygon fill="#0000ff" points="380.814,73.5771 380.314,73.2139 382.123,72.6261"/>
<polygon fill="#0000ff" points="380.314,73.2139 380.123,72.6261 382.123,72.6261"/>
<polygon fill="#0000ff" points="380.123,72.6261 380.314,72.0383 382.123,72.6261"/>
<polygon fill="#0000ff" points="380.314,72.0383 380.814,71.675 382.123,72.6261"/>
<polygon fill="#0000ff" points="380.814,71.675 381.432,71.675 382.123,72.6261"/>
<polygon fill="#0000ff" points="381.432,71.675 381.932,72.0383 382.123,72.6261"/>
<polygon fill="#0000ff" points="347.78,58.9534 347.28,59.3166 347.971,58.3655"/>
<polygon fill="#0000ff" points="347.28,59.3166 346.662,59.3166 347.971,58.3655"/>
<polygon fill="#0000ff" points="346.662,59.3166 346.162,58.9534 347.971,58.3655"/>
<polygon fill="#0000ff" points="346.162,58.9534 345.971,58.3655 347.971,58.3655"/>
<polygon fill="#0000ff" points="345.971,58.3655 346.162,57.7778 347.971,58.3655"/>
<polygon fill="#0000ff" points="346.162,57.7778 346.662,57.4145 347.971,58.3655"/>
<polygon fill="#0000ff" points="346.662,57.4145 347.28,57.4145 347.971,58.3655"/>
<polygon fill="#0000ff" points="347.28,57.4145 347.78,57.7778 347.971,58.3655"/>
<polygon fill="#0000ff" points="310.955,50.8369 310.455,51.2002 311.146,50.2491"/>
<polygon fill="#0000ff" points="310.455,51.2002 309.837,51.2002 311.146,50.2491"/>
<polygon fill="#0000ff" points="309.837,51.2002 309.337,50.8369 311.146,50.2491"/>
<polygon fill="#0000ff" points="309.337,50.8369 309.146,50.2491 311.146,50.2491"/>
<polygon fill="#0000ff" points="309.146,50.2491 309.337,49.6613 311.146,50.2491"/>
<polygon fill="#0000ff" points="309.337,49.6613 309.837,49.2981 311.146,50.2491"/>
<polygon fill="#0000ff" points="309.837,49.2981 310.455,49.2981 311.146,50.2491"/>
<polygon fill="#0000ff" points="310.455,49.2981 310.955,49.6613 311.146,50.2491"/>
<polygon fill="#0000ff" points="272.965,49.1968 272.465,49.5601 273.156,48.609"/>
<polygon fill="#0000ff" points="272.465,49.5601 271.847,49.5601 273.156,48.609"/>
<polygon fill="#0000ff" points="271.847,49.5601 271.347,49.1968 273.156,48.609"/>
<polygon fill="#0000ff" points="271.347,49.1968 271.156,48.609 273.156,48.609"/>
<polygon fill="#0000ff" points="271.156,48.609 271.347,48.0212 273.156,48.609"/>
<polygon fill="#0000ff" points="271.347,48.0212 271.847,47.658 273.156,48.609"/>
<polygon fill="#0000ff" points="271.847,47.658 272.465,47.658 273.156,48.609"/>
<polygon fill="#0000ff" points="272.465,47.658 272.965,48.0212 273.156,48.609"/>
<polygon fill="#0000ff" points="235.365,54.1003 234.865,54.4635 235.556,53.5125"/>
<polygon fill="#0000ff" points="234.865,54.4635 234.247,54.4635 235.556,53.5125"/>
<polygon fill="#0000ff" points="234.247,54.4635 233.747,54.1003 235.556,53.5125"/>
<polygon fill="#0000ff" points="233.747,54.1003 233.556,53.5125 235.556,53.5125"/>
<polygon fill="#0000ff" points="233.556,53.5125 233.747,52.9247 235.556,53.5125"/>
<polygon fill="#0000ff" points="233.747,52.9247 234.247,52.5614 235.556,53.5125"/>
<polygon fill="#0000ff" points="234.247,52.5614 234.865,52.5614 235.556,53.5125"/>
<polygon fill="#0000ff" points="234.865,52.5614 235.365,52.9247 235.556,53.5125"/>
<polygon fill="#0000ff" points="199.694,65.3464 199.194,65.7097 199.885,64.7586"/>
<polygon fill="#0000ff" points="199.194,65.7097 198.576,65.7097 199.885,64.7586"/>
<polygon fill="#0000ff" points="198.576,65.7097 198.076,65.3464 199.885,64.7586"/>
<polygon fill="#0000ff" points="198.076,65.3464 197.885,64.7586 199.885,64.7586"/>
<polygon fill="#0000ff" points="197.885,64.7586 198.076,64.1708 199.885,64.7586"/>
<polygon fill="#0000ff" points="198.076,64.1708 198.576,63.8076 199.885,64.7586"/>
<polygon fill="#0000ff" points="198.576,63.8076 199.194,63.8076 199.885,64.7586"/>
<polygon fill="#0000ff" points="199.194,63.8076 199.694,64.1708 199.885,64.7586"/>
<polygon fill="#0000ff" points="167.412,82.4749 166.912,82.8382 167.603,81.8871"/>
<polygon fill="#0000ff" points="166.912,82.8382 166.294,82.8382 167.603,81.8871"/>
<polygon fill="#0000ff" points="166.294,82.8382 165.794,82.4749 167.603,81.8871"/>
<polygon fill="#0000ff" points="165.794,82.4749 165.603,81.8871 167.603,81.8871"/>
<polygon fill="#0000ff" points="165.603,81.8871 165.794,81.2993 167.603,81.8871"/>
<polygon fill="#0000ff" points="165.794,81.2993 166.294,80.9361 167.603,81.8871"/>
<polygon fill="#0000ff" points="166.294,80.9361 166.912,80.9361 167.603,81.8871"/>
<polygon fill="#0000ff" points="166.912,80.9361 167.412,81.2993 167.603,81.8871"/>
<polygon fill="#0000ff" points="139.842,104.784 139.342,105.148 140.033,104.197"/>
<polygon fill="#0000ff" points="139.342,105.148 138.724,105.148 140.033,104.197"/>
<polygon fill="#0000ff" points="138.724,105.148 138.224,104.784 140.033,104.197"/>
<polygon fill="#0000ff" points="138.224,104.784 138.033,104.197 140.033,104.197"/>
<polygon fill="#0000ff" points="138.033,104.197 138.224,103.609 140.033,104.197"/>
<polygon fill="#0000ff" points="138.224,103.609 138.724,103.246 140.033,104.197"/>
<polygon fill="#0000ff" points="138.724,103.246 139.342,103.246 140.033,104.197"/>
<polygon fill="#0000ff" points="139.342,103.246 139.842,103.609 140.033,104.197"/>
<polygon fill="#0000ff" points="118.111,131.362 117.611,131.725 118.302,130.774"/>
<polygon fill="#0000ff" points="117.611,131.725 116.993,131.725 118.302,130.774"/>
<polygon fill="#0000ff" points="116.993,131.725 116.493,131.362 118.302,130.774"/>
<polygon fill="#0000ff" points="116.493,131.362 116.302,130.774 118.302,130.774"/>
<polygon fill="#0000ff" points="116.302,130.774 116.493,130.186 118.302,130.774"/>
<polygon fill="#0000ff" points="116.493,130.186 116.993,129.823 118.302,130.774"/>
<polygon fill="#0000ff" points="116.993,129.823 117.611,129.823 118.302,130.774"/>
<polygon fill="#0000ff" points="117.611,129.823 118.111,130.186 118.302,130.774"/>
<polygon fill="#0000ff" points="103.111,161.119 102.611,161.482 103.302,160.531"/>
<polygon fill="#0000ff" points="102.611,161.482 101.993,161.482 103.302,160.531"/>
<polygon fill="#0000ff" points="101.993,161.482 101.493,161.119 103.302,160.531"/>
<polygon fill="#0000ff" points="101.493,161.119 101.302,160.531 103.302,160.531"/>
<polygon fill="#0000ff" points="101.302,160.531 101.493,159.943 103.302,160.531"/>
<polygon fill="#0000ff" points="101.493,159.943 101.993,159.58 103.302,160.531"/>
<polygon fill="#0000ff" points="101.993,159.58 102.611,159.58 103.302,160.531"/>
<polygon fill="#0000ff" points="102.611,159.58 103.111,159.943 103.302,160.531"/>
<polygon fill="#0000ff" points="95.4534,192.837 94.9534,193.2 95.6444,192.249"/>
<polygon fill="#0000ff" points="94.9534,193.2 94.3354,193.2 95.6444,192.249"/>
<polygon fill="#0000ff" points="94.3354,193.2 93.8354,192.837 95.6444,192.249"/>
<polygon fill="#0000ff" points="93.8354,192.837 93.6444,192.249 95.6444,192.249"/>
<polygon fill="#0000ff" points="93.6444,192.249 93.8354,191.662 95.6444,192.249"/>
<polygon fill="#0000ff" points="93.8354,191.662 94.3354,191.298 95.6444,192.249"/>
<polygon fill="#0000ff" points="94.3354,191.298 94.9534,191.298 95.6444,192.249"/>
<polygon fill="#0000ff" points="94.9534,191.298 95.4534,191.662 95.6444,192.249"/>
<polygon fill="#0000ff" points="95.4534,225.218 94.9534,225.582 95.6444,224.631"/>
<polygon fill="#0000ff" points="94.9534,225.582 94.3354,225.582 95.6444,224.631"/>
<polygon fill="#0000ff" points="94.3354,225.582 93.8354,225.218 95.6444,224.631"/>
<polygon fill="#0000ff" points="93.8354,225.218 93.6444,224.631 95.6444,224.631"/>
<polygon fill="#0000ff" points="93.6444,224.631 93.8354,224.043 95.6444,224.631"/>
<polygon fill="#0000ff" points="93.8354,224.043 94.3354,223.68 95.6444,224.631"/>
<polygon fill="#0000ff" points="94.3354,223.68 94.9534,223.68 95.6444,224.631"/>
<polygon fill="#0000ff" points="94.9534,223.68 95.4534,224.043 95.6444,224.631"/>
<polygon fill="#0000ff" points="103.111,256.937 102.611,257.3 103.302,256.349"/>
<polygon fill="#0000ff" points="102.611,257.3 101.993,257.3 103.302,256.349"/>
<polygon fill="#0000ff" points="101.993,257.3 101.493,256.937 103.302,256.349"/>
<polygon fill="#0000ff" points="101.493,256.937 101.302,256.349 103.302,256.349"/>
<polygon fill="#0000ff" points="101.302,256.349 101.493,255.761 103.302,256.349"/>
<polygon fill="#0000ff" points="101.493,255.761 101.993,255.398 103.302,256.349"/>
<polygon fill="#0000ff" points="101.993,255.398 102.611,255.398 103.302,256.349"/>
<polygon fill="#0000ff" points="102.611,255.398 103.111,255.761 103.302,256.349"/>
<polygon fill="#0000ff" points="118.111,286.694 117.611,287.057 118.302,286.106"/>
<polygon fill="#0000ff" points="117.611,287.057 116.993,287.057 118.302,286.106"/>
<polygon fill="#0000ff" points="116.993,287.057 116.493,286.694 118.302,286.106"/>
<polygon fill="#0000ff" points="116.493,286.694 116.302,286.106 118.302,286.106"/>
<polygon fill="#0000ff" points="116.302,286.106 116.493,285.518 118.302,286.106"/>
<polygon fill="#0000ff" points="116.493,285.518 116.993,285.155 118.302,286.106"/>
<polygon fill="#0000ff" points="116.993,285.155 117.611,285.155 118.302,286.106"/>
<polygon fill="#0000ff" points="117.611,285.155 118.111,285.518 118.302,286.106"/>
<polygon fill="#0000ff" points="139.842,313.271 139.342,313.634 140.033,312.683"/>
<polygon fill="#0000ff" points="139.342,313.634 138.724,313.634 140.033,312.683"/>
<polygon fill="#0000ff" points="138.724,313.634 138.224,313.271 140.033,312.683"/>
<polygon fill="#0000ff" points="138.224,313.271 138.033,312.683 140.033,312.683"/>
<polygon fill="#0000ff" points="138.033,312.683 138.224,312.096 140.033,312.683"/>
<polygon fill="#0000ff" points="138.224,312.096 138.724,311.732 140.033,312.683"/>
<polygon fill="#0000ff" points="138.724,311.732 139.342,311.732 140.033,312.683"/>
<polygon fill="#0000ff" points="139.342,311.732 139.842,312.096 140.033,312.683"/>
<polygon fill="#0000ff" points="167.412,335.581 166.912,335.944 167.603,334.993"/>
<polygon fill="#0000ff" points="166.912,335.944 166.294,335.944 167.603,334.993"/>
<polygon fill="#0000ff" points="166.294,335.944 165.794,335.581 167.603,334.993"/>
<polygon fill="#0000ff" points="165.794,335.581 165.603,334.993 167.603,334.993"/>
<polygon fill="#0000ff" points="165.603,334.993 165.794,334.405 167.603,334.993"/>
<polygon fill="#0000ff" points="165.794,334.405 166.294,334.042 167.603,334.993"/>
<polygon fill="#0000ff" points="166.294,334.042 166.912,334.042 167.603,334.993"/>
<polygon fill="#0000ff" points="166.912,334.042 167.412,334.405 167.603,334.993"/>
<polygon fill="#0000ff" points="199.694,352.709 199.194,353.072 199.885,352.121"/>
<polygon fill="#0000ff" points="199.194,353.072 198.576,353.072 199.885,352.121"/>
<polygon fill="#0000ff" points="198.576,353.072 198.076,352.709 199.885,352.121"/>
<polygon fill="#0000ff" points="198.076,352.709 197.885,352.121 199.885,352.121"/>
<polygon fill="#0000ff" points="197.885,352.121 198.076,351.534 199.885,352.121"/>
<polygon fill="#0000ff" points="198.076,351.534 198.576,351.17 199.885,352.121"/>
<polygon fill="#0000ff" points="198.576,351.17 199.194,351.17 199.885,352.121"/>
<polygon fill="#0000ff" points="199.194,351.17 199.694,351.534 199.885,352.121"/>
<polygon fill="#0000ff" points="235.365,363.955 234.865,364.319 235.556,363.368"/>
<polygon fill="#0000ff" points="234.865,364.319 234.247,364.319 235.556,363.368"/>
<polygon fill="#0000ff" points="234.247,364.319 233.747,363.955 235.556,363.368"/>
<polygon fill="#0000ff" points="233.747,363.955 233.556,363.368 235.556,363.368"/>
<polygon fill="#0000ff" points="233.556,363.368 233.747,362.78 235.556,363.368"/>
<polygon fill="#0000ff" points="233.747,362.78 234.247,362.417 235.556,363.368"/>
<polygon fill="#0000ff" points="234.247,362.417 234.865,362.417 235.556,363.368"/>
<polygon fill="#0000ff" points="234.865,362.417 235.365,362.78 235.556,363.368"/>
<polygon fill="#0000ff" points="272.965,368.859 272.465,369.222 273.156,368.271"/>
<polygon fill="#0000ff" points="272.465,369.222 271.847,369.222 273.156,368.271"/>
<polygon fill="#0000ff" points="271.847,369.222 271.347,368.859 273.156,368.271"/>
<polygon fill="#0000ff" points="271.347,368.859 271.156,368.271 273.156,368.271"/>
<polygon fill="#0000ff" points="271.156,368.271 271.347,367.683 273.156,368.271"/>
<polygon fill="#0000ff" points="271.347,367.683 271.847,367.32 273.156,368.271"/>
<polygon fill="#0000ff" points="271.847,367.32 272.465,367.32 273.156,368.271"/>
<polygon fill="#0000ff" points="272.465,367.32 272.965,367.683 273.156,368.271"/>
<polygon fill="#0000ff" points="310.955,367.219 310.455,367.582 311.146,366.631"/>
<polygon fill="#0000ff" points="310.455,367.582 309.837,367.582 311.146,366.631"/>
<polygon fill="#0000ff" points="309.837,367.582 309.337,367.219 311.146,366.631"/>
<polygon fill="#0000ff" points="309.337,367.219 309.146,366.631 311.146,366.631"/>
<polygon fill="#0000ff" points="309.146,366.631 309.337,366.043 311.146,366.631"/>
<polygon fill="#0000ff" points="309.337,366.043 309.837,365.68 311.146,366.631"/>
<polygon fill="#0000ff" points="309.837,365.68 310.455,365.68 311.146,366.631"/>
<polygon fill="#0000ff" points="310.455,365.68 310.955,366.043 311.146,366.631"/>
<polygon fill="#0000ff" points="347.78,359.102 347.28,359.466 347.971,358.514"/>
<polygon fill="#0000ff" points="347.28,359.466 346.662,359.466 347.971,358.514"/>
<polygon fill="#0000ff" points="346.662,359.466 346.162,359.102 347.971,358.514"/>
<polygon fill="#0000ff" points="346.162,359.102 345.971,358.514 347.971,358.514"/>
<polygon fill="#0000ff" points="345.971,358.514 346.162,357.927 347.971,358.514"/>
<polygon fill="#0000ff" points="346.162,357.927 346.662,357.563 347.971,358.514"/>
<polygon fill="#0000ff" points="346.662,357.563 347.28,357.563 347.971,358.514"/>
<polygon fill="#0000ff" points="347.28,357.563 347.78,357.927 347.971,358.514"/>
<polygon fill="#0000ff" points="381.932,344.842 381.432,345.205 382.123,344.254"/>
<polygon fill="#0000ff" points="381.432,345.205 380.814,345.205 382.123,344.254"/>
<polygon fill="#0000ff" points="380.814,345.205 380.314,344.842 382.123,344.254"/>
<polygon fill="#0000ff" points="380.314,344.842 380.123,344.254 382.123,344.254"/>
<polygon fill="#0000ff" points="380.123,344.254 380.314,343.666 382.123,344.254"/>
<polygon fill="#0000ff" points="380.314,343.666 380.814,343.303 382.123,344.254"/>
<polygon fill="#0000ff" points="380.814,343.303 381.432,343.303 382.123,344.254"/>
<polygon fill="#0000ff" points="381.432,343.303 381.932,343.666 382.123,344.254"/>
<polygon fill="#0000ff" points="412.012,325.021 411.512,325.384 412.203,324.433"/>
<polygon fill="#0000ff" points="411.512,325.384 410.894,325.384 412.203,324.433"/>
<polygon fill="#0000ff" points="410.894,325.384 410.394,325.021 412.203,324.433"/>
<polygon fill="#0000ff" points="410.394,325.021 410.203,324.433 412.203,324.433"/>
<polygon fill="#0000ff" points="410.203,324.433 410.394,323.845 412.203,324.433"/>
<polygon fill="#0000ff" points="410.394,323.845 410.894,323.482 412.203,324.433"/>
<polygon fill="#0000ff" points="410.894,323.482 411.512,323.482 412.203,324.433"/>
<polygon fill="#0000ff" points="411.512,323.482 412.012,323.845 412.203,324.433"/>
<polygon fill="#0000ff" points="436.789,300.451 436.289,300.815 436.98,299.864"/>
<polygon fill="#0000ff" points="436.289,300.815 435.671,300.815 436.98,299.864"/>
<polygon fill="#0000ff" points="435.671,300.815 435.171,300.451 436.98,299.864"/>
<polygon fill="#0000ff" points="435.171,300.451 434.98,299.864 436.98,299.864"/>
<polygon fill="#0000ff" points="434.98,299.864 435.171,299.276 436.98,299.864"/>
<polygon fill="#0000ff" points="435.171,299.276 435.671,298.913 436.98,299.864"/>
<polygon fill="#0000ff" points="435.671,298.913 436.289,298.913 436.98,299.864"/>
<polygon fill="#0000ff" points="436.289,298.913 436.789,299.276 436.98,299.864"/>
<polygon fill="#0000ff" points="455.25,272.139 454.75,272.502 455.441,271.551"/>
<polygon fill="#0000ff" points="454.75,272.502 454.132,272.502 455.441,271.551"/>
<polygon fill="#0000ff" points="454.132,272.502 453.632,272.139 455.441,271.551"/>
<polygon fill="#0000ff" points="453.632,272.139 453.441,271.551 455.441,271.551"/>
<polygon fill="#0000ff" points="453.441,271.551 453.632,270.964 455.441,271.551"/>
<polygon fill="#0000ff" points="453.632,270.964 454.132,270.6 455.441,271.551"/>
<polygon fill="#0000ff" points="454.132,270.6 454.75,270.6 455.441,271.551"/>
<polygon fill="#0000ff" points="454.75,270.6 455.25,270.964 455.441,271.551"/>
<polygon fill="#0000ff" points="466.637,241.243 466.137,241.606 466.828,240.655"/>
<polygon fill="#0000ff" points="466.137,241.606 465.519,241.606 466.828,240.655"/>
<polygon fill="#0000ff" points="465.519,241.606 465.019,241.243 466.828,240.655"/>
<polygon fill="#0000ff" points="465.019,241.243 464.828,240.655 466.828,240.655"/>
<polygon fill="#0000ff" points="464.828,240.655 465.019,240.067 466.828,240.655"/>
<polygon fill="#0000ff" points="465.019,240.067 465.519,239.704 466.828,240.655"/>
<polygon fill="#0000ff" points="465.519,239.704 466.137,239.704 466.828,240.655"/>
<polygon fill="#0000ff" points="466.137,239.704 466.637,240.067 466.828,240.655"/>
<polygon fill="#0000ff" points="470.486,209.028 469.986,209.391 470.677,208.44"/>
<polygon fill="#0000ff" points="469.986,209.391 469.368,209.391 470.677,208.44"/>
<polygon fill="#0000ff" points="469.368,209.391 468.868,209.028 470.677,208.44"/>
<polygon fill="#0000ff" points="468.868,209.028 468.677,208.44 470.677,208.44"/>
<polygon fill="#0000ff" points="468.677,208.44 468.868,207.852 470.677,208.44"/>
<polygon fill="#0000ff" points="468.868,207.852 469.368,207.489 470.677,208.44"/>
<polygon fill="#0000ff" points="469.368,207.489 469.986,207.489 470.677,208.44"/>
<polygon fill="#0000ff" points="469.986,207.489 470.486,207.852 470.677,208.44"/>
<polygon fill="#ffffff" points="573.25,64.6426 573.25,32.4 573.25,64.6426"/>
<polygon fill="#ffffff" points="573.25,32.4 573.25,32.4 573.25,64.6426"/>
<polygon fill="#ffffff" points="493.976,32.4 573.25,32.4 493.976,32.4"/>
<polygon fill="#ffffff" points="573.25,32.4 573.25,32.4 493.976,32.4"/>
<polygon fill="#ffffff" points="493.976,64.6426 573.25,64.6426 493.976,32.4"/>
<polygon fill="#ffffff" points="573.25,64.6426 573.25,32.4 493.976,32.4"/>
<polyline fill="none" stroke="#000000" stroke-width="0.5" stroke-dasharray="16,0" points="493.976,64.6426 573.25,64.6426"/>
<polyline fill="none" stroke="#000000" stroke-width="0.5" stroke-dasharray="16,0" points="493.976,32.4 573.25,32.4"/>
<polyline fill="none" stroke="#000000" stroke-width="0.5" stroke-dasharray="16,0" points="493.976,32.4 573.25,32.4"/>
<polyline fill="none" stroke="#000000" stroke-width="0.5" stroke-dasharray="16,0" points="493.976,64.6426 573.25,64.6426"/>
<polyline fill="none" stroke="#000000" stroke-width="0.5" stroke-dasharray="16,0" points="493.976,64.6426 493.976,32.4"/>
<polyline fill="none" stroke="#000000" stroke-width="0.5" stroke-dasharray="16,0" points="573.25,64.6426 573.25,32.4"/>
<polyline fill="none" stroke="#000000" stroke-width="0.5" stroke-dasharray="16,0" points="573.25,64.6426 573.25,32.4"/>
<polyline fill="none" stroke="#000000" stroke-width="0.5" stroke-dasharray="16,0" points="493.976,64.6426 493.976,32.4 493.976,32.4"/>
<polyline fill="none" stroke="#000000" stroke-width="0.5" stroke-dasharray="16,0" points="573.25,32.4 573.25,32.4"/>
<polyline fill="none" stroke="#000000" stroke-width="0.5" stroke-dasharray="16,0" points="573.25,64.6426 573.25,64.6426"/>
<polyline fill="none" stroke="#000000" stroke-width="0.5" stroke-dasharray="16,0" points="493.976,64.6426 493.976,64.6426"/>
<text fill="#000000" x="520.1" y="40.4607" font-size="10" text-anchor="start" baseline-shift="-5" font-family="Helvetica">original</text>
<text fill="#000000" x="520.1" y="56.582" font-size="10" text-anchor="start" baseline-shift="-5" font-family="Helvetica">recovered</text>
<polyline fill="none" stroke="#0000ff" stroke-width="0.5" points="510.038,40.4607 509.465,42.224 507.965,43.3138 506.111,43.3138 504.611,42.224 504.038,40.4607 504.611,38.6973 506.111,37.6075 507.965,37.6075 509.465,38.6973 510.038,40.4607"/>
<polyline fill="none" stroke="#ff0000" stroke-width="0.5" points="504.038,53.582 510.038,59.582"/>
<polyline fill="none" stroke="#ff0000" stroke-width="0.5" points="504.038,59.582 510.038,53.582"/>
</g>
</svg>
