<?xml version="1.0" encoding="utf-8" standalone="no"?>
<!DOCTYPE svg PUBLIC "-//W3C//DTD SVG 1.1//EN"
  "http://www.w3.org/Graphics/SVG/1.1/DTD/svg11.dtd">
<!-- Created with matplotlib (http://matplotlib.org/) -->
<svg height="367pt" version="1.1" viewBox="0 0 468 367" width="468pt" xmlns="http://www.w3.org/2000/svg" xmlns:xlink="http://www.w3.org/1999/xlink">
 <defs>
  <style type="text/css">
*{stroke-linecap:butt;stroke-linejoin:round;}
  </style>
 </defs>
 <g id="figure_1">
  <g id="patch_1">
   <path d="
M0 367.2
L468 367.2
L468 0
L0 0
z
" style="fill:none;"/>
  </g>
  <g id="patch_2">
   <path d="
M10.8 356.4
L457.2 356.4
L457.2 10.8
L10.8 10.8
z
" style="fill:none;"/>
  </g>
  <g id="pane3d_1">
   <g id="patch_3">
    <path d="
M93.7786 243.446
L322.487 225.947
L325.306 52.0872
L88.654 65.8681" style="fill:#f2f2f2;opacity:0.5;stroke:#f2f2f2;"/>
   </g>
  </g>
  <g id="pane3d_2">
   <g id="patch_4">
    <path d="
M322.487 225.947
L396.582 295.854
L402.468 107.275
L325.306 52.0872" style="fill:#e6e6e6;opacity:0.5;stroke:#e6e6e6;"/>
   </g>
  </g>
  <g id="pane3d_3">
   <g id="patch_5">
    <path d="
M93.7786 243.446
L147.258 316.93
L396.582 295.854
L322.487 225.947" style="fill:#ececec;opacity:0.5;stroke:#ececec;"/>
   </g>
  </g>
  <g id="axis3d_1">
   <g id="line2d_1">
    <path d="
M93.7786 243.446
L147.258 316.93" style="fill:none;stroke:#000000;stroke-linecap:square;stroke-width:0.75;"/>
   </g>
   <g id="text_1">
    <g id="patch_6">
     <path d="
M77.3416 315.536
L99.7416 315.536
L99.7416 292.016
L77.3416 292.016
z
" style="fill:#ffffff;stroke:#ffffff;"/>
    </g>
    <!-- $b_0^\ell$ -->
    <defs>
     <path d="
M2.39062 7.42188
Q1.95312 7.42188 1.46875 7.95312
Q0.984375 8.5 0.984375 8.98438
Q0.984375 9.8125 9.28125 17.3906
Q9.28125 17.8281 9.25 18.1094
Q9.23438 18.4062 9.1875 18.7031
Q9.1875 23 9.85938 27.4688
Q10.5469 31.9375 11.7344 36.375
Q12.9375 40.8281 14.7344 45.6562
Q16.5469 50.4844 18.4062 54.1094
Q21.625 60.6875 25.4375 65.5938
Q29.25 70.5156 33.8906 70.5156
Q37.0625 70.5156 38.4219 68.3281
Q39.7969 66.1562 39.7969 62.8906
Q39.7969 44.5781 15.4844 19.8281
Q15.0938 15.5312 15.0938 13.7188
Q15.0938 1.21875 20.7969 1.21875
Q23.25 1.21875 25.6562 2.51562
Q28.0781 3.8125 29.8125 5.32812
Q31.5469 6.84375 34.625 9.8125
Q34.8125 10.0156 35.2031 10.0156
Q35.75 10.0156 36.2344 9.42188
Q36.7188 8.84375 36.7188 8.29688
Q36.7188 7.95312 36.2812 7.625
Q31.8438 3.26562 28.2656 0.875
Q24.7031 -1.51562 20.6094 -1.51562
Q15.3281 -1.51562 12.7656 3.01562
Q10.2031 7.5625 9.51562 13.8125
Q6.84375 11.1406 2.98438 7.625
Q2.875 7.42188 2.39062 7.42188
M16.3125 24.6094
Q21.625 30.2812 26.2656 36.5312
Q30.9062 42.7812 34 49.6875
Q37.1094 56.5938 37.1094 63.1875
Q37.1094 67.9219 33.7969 67.9219
Q30.2188 67.9219 26.5 59.3906
Q22.7969 50.875 20.1562 40.9688
Q17.5312 31.0625 16.3125 24.6094" id="Cmmi10-60"/>
     <path d="
M17.2812 -1.125
Q11.2344 -1.125 7.85938 3.60938
Q4.5 8.34375 4.5 14.7031
Q4.5 15.625 4.95312 18.3281
Q5.42188 21.0469 5.42188 21.6875
L15.0938 60.5
Q15.4844 62.2031 15.5781 63.1875
Q15.5781 64.7969 9.07812 64.7969
Q8.10938 64.7969 8.10938 66.1094
Q8.15625 66.3594 8.32812 66.9844
Q8.5 67.625 8.76562 67.9688
Q9.03125 68.3125 9.51562 68.3125
L23 69.3906
Q24.2188 69.3906 24.2188 68.1094
L16.7969 38.625
Q22.4688 44.1875 28.2188 44.1875
Q32.4688 44.1875 35.5156 41.9375
Q38.5781 39.7031 40.0938 36.0312
Q41.6094 32.375 41.6094 28.2188
Q41.6094 23.3906 39.7188 18.2344
Q37.8438 13.0938 34.5156 8.67188
Q31.2031 4.25 26.75 1.5625
Q22.3125 -1.125 17.2812 -1.125
M17.4844 1.51562
Q20.9062 1.51562 23.875 4.375
Q26.8594 7.23438 28.7188 10.7969
Q30.7188 14.7969 32.4531 21.6562
Q34.1875 28.5156 34.1875 32.625
Q34.1875 36.1875 32.6875 38.8906
Q31.2031 41.6094 27.9844 41.6094
Q24.3594 41.6094 21.0625 38.9375
Q17.7812 36.2812 15.2812 32.625
L12.5 21.2969
Q10.8906 14.9844 10.7969 11.1875
Q10.7969 7.42188 12.4219 4.46875
Q14.0625 1.51562 17.4844 1.51562" id="Cmmi10-62"/>
     <path d="
M25 -2.20312
Q12.75 -2.20312 8.32812 7.875
Q3.90625 17.9688 3.90625 31.8906
Q3.90625 40.5781 5.48438 48.2344
Q7.07812 55.9062 11.7812 61.25
Q16.5 66.6094 25 66.6094
Q31.5938 66.6094 35.7812 63.375
Q39.9844 60.1562 42.1875 55.0469
Q44.3906 49.9531 45.1875 44.1094
Q46 38.2812 46 31.8906
Q46 23.2969 44.4062 15.7969
Q42.8281 8.29688 38.1875 3.04688
Q33.5469 -2.20312 25 -2.20312
M25 0.390625
Q30.5625 0.390625 33.2969 6.09375
Q36.0312 11.8125 36.6719 18.75
Q37.3125 25.6875 37.3125 33.5
Q37.3125 41.0156 36.6719 47.3594
Q36.0312 53.7188 33.3125 58.8594
Q30.6094 64.0156 25 64.0156
Q19.3438 64.0156 16.6094 58.8281
Q13.875 53.6562 13.2344 47.3281
Q12.5938 41.0156 12.5938 33.5
Q12.5938 27.9375 12.8594 23
Q13.1406 18.0625 14.3125 12.8125
Q15.4844 7.5625 18.0938 3.96875
Q20.7031 0.390625 25 0.390625" id="Cmr10-30"/>
    </defs>
    <g transform="translate(79.3415539379 309.05604947)scale(0.16 -0.16)">
     <use transform="translate(0.0 0.7578125)" xlink:href="#Cmmi10-62"/>
     <use transform="translate(55.410234375 44.6390625)scale(0.7)" xlink:href="#Cmmi10-60"/>
     <use transform="translate(42.919921875 -24.7515625)scale(0.7)" xlink:href="#Cmr10-30"/>
    </g>
   </g>
   <g id="Line3DCollection_1">
    <defs>
     <path d="
M94.7538 -122.414
L323.842 -139.975
L326.712 -314.107" id="C0_0_f9f1ce64df"/>
     <path d="
M102.684 -111.517
L334.85 -129.59
L338.145 -305.93" id="C0_1_9aa07fc98c"/>
     <path d="
M110.849 -100.297
L346.176 -118.903
L349.92 -297.508" id="C0_2_f567e4b3cd"/>
     <path d="
M119.261 -88.74
L357.835 -107.903
L362.054 -288.83" id="C0_3_c698378002"/>
     <path d="
M127.929 -76.8295
L369.842 -96.5754
L374.562 -279.884" id="C0_4_3e9583531b"/>
     <path d="
M136.866 -64.5493
L382.211 -84.9049
L387.463 -270.657" id="C0_5_febfaf94e4"/>
     <path d="
M146.085 -51.882
L394.961 -72.8759
L400.774 -261.137" id="C0_6_0bc60b06ae"/>
    </defs>
    <use style="fill:none;stroke:#e6e6e6;" x="0.0" xlink:href="#C0_0_f9f1ce64df" y="367.2"/>
    <use style="fill:none;stroke:#e6e6e6;" x="0.0" xlink:href="#C0_1_9aa07fc98c" y="367.2"/>
    <use style="fill:none;stroke:#e6e6e6;" x="0.0" xlink:href="#C0_2_f567e4b3cd" y="367.2"/>
    <use style="fill:none;stroke:#e6e6e6;" x="0.0" xlink:href="#C0_3_c698378002" y="367.2"/>
    <use style="fill:none;stroke:#e6e6e6;" x="0.0" xlink:href="#C0_4_3e9583531b" y="367.2"/>
    <use style="fill:none;stroke:#e6e6e6;" x="0.0" xlink:href="#C0_5_febfaf94e4" y="367.2"/>
    <use style="fill:none;stroke:#e6e6e6;" x="0.0" xlink:href="#C0_6_0bc60b06ae" y="367.2"/>
   </g>
   <g id="xtick_1">
    <g id="line2d_2">
     <path d="
M96.6304 244.643
L90.9986 245.074" style="fill:none;stroke:#ff0000;stroke-linecap:square;"/>
    </g>
    <g id="text_2">
     <!-- −1.5 -->
     <defs>
      <path d="
M12.4062 8.29688
L28.5156 8.29688
L28.5156 63.9219
L10.9844 60.4062
L10.9844 69.3906
L28.4219 72.9062
L38.2812 72.9062
L38.2812 8.29688
L54.3906 8.29688
L54.3906 0
L12.4062 0
z
" id="DejaVuSans-31"/>
      <path d="
M10.6875 12.4062
L21 12.4062
L21 0
L10.6875 0
z
" id="DejaVuSans-2e"/>
      <path d="
M10.7969 72.9062
L49.5156 72.9062
L49.5156 64.5938
L19.8281 64.5938
L19.8281 46.7344
Q21.9688 47.4688 24.1094 47.8281
Q26.2656 48.1875 28.4219 48.1875
Q40.625 48.1875 47.75 41.5
Q54.8906 34.8125 54.8906 23.3906
Q54.8906 11.625 47.5625 5.09375
Q40.2344 -1.42188 26.9062 -1.42188
Q22.3125 -1.42188 17.5469 -0.640625
Q12.7969 0.140625 7.71875 1.70312
L7.71875 11.625
Q12.1094 9.23438 16.7969 8.0625
Q21.4844 6.89062 26.7031 6.89062
Q35.1562 6.89062 40.0781 11.3281
Q45.0156 15.7656 45.0156 23.3906
Q45.0156 31 40.0781 35.4375
Q35.1562 39.8906 26.7031 39.8906
Q22.75 39.8906 18.8125 39.0156
Q14.8906 38.1406 10.7969 36.2812
z
" id="DejaVuSans-35"/>
      <path d="
M10.5938 35.5
L73.1875 35.5
L73.1875 27.2031
L10.5938 27.2031
z
" id="DejaVuSans-2212"/>
     </defs>
     <g style="fill:#ff0000;" transform="translate(68.4884821941 264.528420827)scale(0.12 -0.12)">
      <use xlink:href="#DejaVuSans-2212"/>
      <use x="83.7890625" xlink:href="#DejaVuSans-31"/>
      <use x="147.412109375" xlink:href="#DejaVuSans-2e"/>
      <use x="179.19921875" xlink:href="#DejaVuSans-35"/>
     </g>
    </g>
   </g>
   <g id="xtick_2">
    <g id="line2d_3">
     <path d="
M104.586 255.535
L98.877 255.979" style="fill:none;stroke:#ff0000;stroke-linecap:square;"/>
    </g>
    <g id="text_3">
     <!-- −1.0 -->
     <defs>
      <path d="
M31.7812 66.4062
Q24.1719 66.4062 20.3281 58.9062
Q16.5 51.4219 16.5 36.375
Q16.5 21.3906 20.3281 13.8906
Q24.1719 6.39062 31.7812 6.39062
Q39.4531 6.39062 43.2812 13.8906
Q47.125 21.3906 47.125 36.375
Q47.125 51.4219 43.2812 58.9062
Q39.4531 66.4062 31.7812 66.4062
M31.7812 74.2188
Q44.0469 74.2188 50.5156 64.5156
Q56.9844 54.8281 56.9844 36.375
Q56.9844 17.9688 50.5156 8.26562
Q44.0469 -1.42188 31.7812 -1.42188
Q19.5312 -1.42188 13.0625 8.26562
Q6.59375 17.9688 6.59375 36.375
Q6.59375 54.8281 13.0625 64.5156
Q19.5312 74.2188 31.7812 74.2188" id="DejaVuSans-30"/>
     </defs>
     <g style="fill:#ff0000;" transform="translate(76.1009421533 275.573999719)scale(0.12 -0.12)">
      <use xlink:href="#DejaVuSans-2212"/>
      <use x="83.7890625" xlink:href="#DejaVuSans-31"/>
      <use x="147.412109375" xlink:href="#DejaVuSans-2e"/>
      <use x="179.19921875" xlink:href="#DejaVuSans-30"/>
     </g>
    </g>
   </g>
   <g id="xtick_3">
    <g id="line2d_4">
     <path d="
M112.778 266.75
L106.989 267.208" style="fill:none;stroke:#ff0000;stroke-linecap:square;"/>
    </g>
    <g id="text_4">
     <!-- −0.5 -->
     <g style="fill:#ff0000;" transform="translate(84.1939920211 286.946945403)scale(0.12 -0.12)">
      <use xlink:href="#DejaVuSans-2212"/>
      <use x="83.7890625" xlink:href="#DejaVuSans-30"/>
      <use x="147.412109375" xlink:href="#DejaVuSans-2e"/>
      <use x="179.19921875" xlink:href="#DejaVuSans-35"/>
     </g>
    </g>
   </g>
   <g id="xtick_4">
    <g id="line2d_5">
     <path d="
M121.217 278.303
L115.346 278.774" style="fill:none;stroke:#ff0000;stroke-linecap:square;"/>
    </g>
    <g id="text_5">
     <!-- 0.0 -->
     <g style="fill:#ff0000;" transform="translate(97.063293359 298.662030447)scale(0.12 -0.12)">
      <use xlink:href="#DejaVuSans-30"/>
      <use x="63.623046875" xlink:href="#DejaVuSans-2e"/>
      <use x="95.41015625" xlink:href="#DejaVuSans-30"/>
     </g>
    </g>
   </g>
   <g id="xtick_5">
    <g id="line2d_6">
     <path d="
M129.913 290.209
L123.958 290.695" style="fill:none;stroke:#ff0000;stroke-linecap:square;"/>
    </g>
    <g id="text_6">
     <!-- 0.5 -->
     <g style="fill:#ff0000;" transform="translate(105.646702412 310.734929814)scale(0.12 -0.12)">
      <use xlink:href="#DejaVuSans-30"/>
      <use x="63.623046875" xlink:href="#DejaVuSans-2e"/>
      <use x="95.41015625" xlink:href="#DejaVuSans-35"/>
     </g>
    </g>
   </g>
   <g id="xtick_6">
    <g id="line2d_7">
     <path d="
M138.879 302.484
L132.837 302.985" style="fill:none;stroke:#ff0000;stroke-linecap:square;"/>
    </g>
    <g id="text_7">
     <!-- 1.0 -->
     <g style="fill:#ff0000;" transform="translate(114.50463163 323.182290842)scale(0.12 -0.12)">
      <use xlink:href="#DejaVuSans-31"/>
      <use x="63.623046875" xlink:href="#DejaVuSans-2e"/>
      <use x="95.41015625" xlink:href="#DejaVuSans-30"/>
     </g>
    </g>
   </g>
   <g id="xtick_7">
    <g id="line2d_8">
     <path d="
M148.128 315.146
L141.996 315.663" style="fill:none;stroke:#ff0000;stroke-linecap:square;"/>
    </g>
    <g id="text_8">
     <!-- 1.5 -->
     <g style="fill:#ff0000;" transform="translate(123.625103319 336.021809825)scale(0.12 -0.12)">
      <use xlink:href="#DejaVuSans-31"/>
      <use x="63.623046875" xlink:href="#DejaVuSans-2e"/>
      <use x="95.41015625" xlink:href="#DejaVuSans-35"/>
     </g>
    </g>
   </g>
  </g>
  <g id="axis3d_2">
   <g id="line2d_9">
    <path d="
M396.582 295.854
L147.258 316.93" style="fill:none;stroke:#000000;stroke-linecap:square;stroke-width:0.75;"/>
   </g>
   <g id="text_9">
    <g id="patch_7">
     <path d="
M271.256 351.702
L293.656 351.702
L293.656 328.502
L271.256 328.502
z
" style="fill:#ffffff;stroke:#ffffff;"/>
    </g>
    <!-- $b_1^\ell$ -->
    <defs>
     <path d="
M9.28125 0
L9.28125 3.51562
Q21.7812 3.51562 21.7812 6.6875
L21.7812 59.1875
Q16.6094 56.6875 8.6875 56.6875
L8.6875 60.2031
Q20.9531 60.2031 27.2031 66.6094
L28.6094 66.6094
Q28.9531 66.6094 29.2656 66.3281
Q29.5938 66.0625 29.5938 65.7188
L29.5938 6.6875
Q29.5938 3.51562 42.0938 3.51562
L42.0938 0
z
" id="Cmr10-31"/>
    </defs>
    <g transform="translate(273.256492757 345.541637373)scale(0.16 -0.16)">
     <use transform="translate(0.0 0.7578125)" xlink:href="#Cmmi10-62"/>
     <use transform="translate(55.410234375 44.6390625)scale(0.7)" xlink:href="#Cmmi10-60"/>
     <use transform="translate(42.919921875 -24.7515625)scale(0.7)" xlink:href="#Cmr10-31"/>
    </g>
   </g>
   <g id="Line3DCollection_2">
    <defs>
     <path d="
M93.5026 -301.614
L98.4606 -124.112
L152.374 -50.7028" id="C1_0_819147aa80"/>
     <path d="
M151.311 -304.981
L154.296 -128.384
L213.342 -55.8566" id="C1_1_0a2de20889"/>
     <path d="
M208.436 -308.307
L209.493 -132.607
L273.547 -60.9459" id="C1_2_37f7de6299"/>
     <path d="
M264.891 -311.595
L264.064 -136.783
L333.002 -65.9717" id="C1_3_fd28ecc772"/>
     <path d="
M320.686 -314.844
L318.018 -140.911
L391.722 -70.9354" id="C1_4_afb242a1a4"/>
    </defs>
    <use style="fill:none;stroke:#e6e6e6;" x="0.0" xlink:href="#C1_0_819147aa80" y="367.2"/>
    <use style="fill:none;stroke:#e6e6e6;" x="0.0" xlink:href="#C1_1_0a2de20889" y="367.2"/>
    <use style="fill:none;stroke:#e6e6e6;" x="0.0" xlink:href="#C1_2_37f7de6299" y="367.2"/>
    <use style="fill:none;stroke:#e6e6e6;" x="0.0" xlink:href="#C1_3_fd28ecc772" y="367.2"/>
    <use style="fill:none;stroke:#e6e6e6;" x="0.0" xlink:href="#C1_4_afb242a1a4" y="367.2"/>
   </g>
   <g id="xtick_8">
    <g id="line2d_10">
     <path d="
M151.9 315.852
L153.323 317.79" style="fill:none;stroke:#0000ff;stroke-linecap:square;"/>
    </g>
    <g id="text_10">
     <!-- −0.5 -->
     <g style="fill:#0000ff;" transform="translate(142.475093021 340.581727212)scale(0.12 -0.12)">
      <use xlink:href="#DejaVuSans-2212"/>
      <use x="83.7890625" xlink:href="#DejaVuSans-30"/>
      <use x="147.412109375" xlink:href="#DejaVuSans-2e"/>
      <use x="179.19921875" xlink:href="#DejaVuSans-35"/>
     </g>
    </g>
   </g>
   <g id="xtick_9">
    <g id="line2d_11">
     <path d="
M212.824 310.707
L214.381 312.62" style="fill:none;stroke:#0000ff;stroke-linecap:square;"/>
    </g>
    <g id="text_11">
     <!-- 0.0 -->
     <g style="fill:#0000ff;" transform="translate(208.293094393 335.315553086)scale(0.12 -0.12)">
      <use xlink:href="#DejaVuSans-30"/>
      <use x="63.623046875" xlink:href="#DejaVuSans-2e"/>
      <use x="95.41015625" xlink:href="#DejaVuSans-30"/>
     </g>
    </g>
   </g>
   <g id="xtick_10">
    <g id="line2d_12">
     <path d="
M272.985 305.625
L274.674 307.514" style="fill:none;stroke:#0000ff;stroke-linecap:square;"/>
    </g>
    <g id="text_12">
     <!-- 0.5 -->
     <g style="fill:#0000ff;" transform="translate(268.805657999 330.1155874)scale(0.12 -0.12)">
      <use xlink:href="#DejaVuSans-30"/>
      <use x="63.623046875" xlink:href="#DejaVuSans-2e"/>
      <use x="95.41015625" xlink:href="#DejaVuSans-35"/>
     </g>
    </g>
   </g>
   <g id="xtick_11">
    <g id="line2d_13">
     <path d="
M332.398 300.607
L334.214 302.473" style="fill:none;stroke:#0000ff;stroke-linecap:square;"/>
    </g>
    <g id="text_13">
     <!-- 1.0 -->
     <g style="fill:#0000ff;" transform="translate(328.57594317 324.980589356)scale(0.12 -0.12)">
      <use xlink:href="#DejaVuSans-31"/>
      <use x="63.623046875" xlink:href="#DejaVuSans-2e"/>
      <use x="95.41015625" xlink:href="#DejaVuSans-30"/>
     </g>
    </g>
   </g>
   <g id="xtick_12">
    <g id="line2d_14">
     <path d="
M391.076 295.651
L393.016 297.494" style="fill:none;stroke:#0000ff;stroke-linecap:square;"/>
    </g>
    <g id="text_14">
     <!-- 1.5 -->
     <g style="fill:#0000ff;" transform="translate(387.593626414 319.909348967)scale(0.12 -0.12)">
      <use xlink:href="#DejaVuSans-31"/>
      <use x="63.623046875" xlink:href="#DejaVuSans-2e"/>
      <use x="95.41015625" xlink:href="#DejaVuSans-35"/>
     </g>
    </g>
   </g>
  </g>
  <g id="axis3d_3">
   <g id="line2d_15">
    <path d="
M396.582 295.854
L402.468 107.275" style="fill:none;stroke:#000000;stroke-linecap:square;stroke-width:0.75;"/>
   </g>
   <g id="text_15">
    <g id="patch_8">
     <path d="
M430.942 221.427
L453.342 221.427
L453.342 198.227
L430.942 198.227
z
" style="fill:#ffffff;stroke:#ffffff;"/>
    </g>
    <!-- $b_2^\ell$ -->
    <defs>
     <path d="
M4.98438 0
L4.98438 2.6875
Q4.98438 2.9375 5.17188 3.21875
L20.7031 20.4062
Q24.2188 24.2188 26.4062 26.7969
Q28.6094 29.3906 30.75 32.7656
Q32.9062 36.1406 34.1562 39.625
Q35.4062 43.1094 35.4062 47.0156
Q35.4062 51.125 33.8906 54.8594
Q32.375 58.5938 29.375 60.8438
Q26.375 63.0938 22.125 63.0938
Q17.7812 63.0938 14.3125 60.4688
Q10.8438 57.8594 9.42188 53.7188
Q9.8125 53.8125 10.5 53.8125
Q12.75 53.8125 14.3281 52.2969
Q15.9219 50.7812 15.9219 48.3906
Q15.9219 46.0938 14.3281 44.5
Q12.75 42.9219 10.5 42.9219
Q8.15625 42.9219 6.5625 44.5469
Q4.98438 46.1875 4.98438 48.3906
Q4.98438 52.1562 6.39062 55.4375
Q7.8125 58.7344 10.4688 61.2969
Q13.1406 63.875 16.4844 65.2344
Q19.8281 66.6094 23.5781 66.6094
Q29.2969 66.6094 34.2188 64.1875
Q39.1562 61.7656 42.0312 57.3438
Q44.9219 52.9375 44.9219 47.0156
Q44.9219 42.6719 43.0156 38.7656
Q41.1094 34.8594 38.125 31.6562
Q35.1562 28.4688 30.5156 24.4062
Q25.875 20.3594 24.4219 19
L13.0938 8.10938
L22.7031 8.10938
Q29.7812 8.10938 34.5469 8.21875
Q39.3125 8.34375 39.5938 8.59375
Q40.7656 9.85938 42 17.8281
L44.9219 17.8281
L42.0938 0
z
" id="Cmr10-32"/>
    </defs>
    <g transform="translate(432.941835905 215.267498976)scale(0.16 -0.16)">
     <use transform="translate(0.0 0.7578125)" xlink:href="#Cmmi10-62"/>
     <use transform="translate(55.410234375 44.6390625)scale(0.7)" xlink:href="#Cmmi10-60"/>
     <use transform="translate(42.919921875 -24.7515625)scale(0.7)" xlink:href="#Cmr10-32"/>
    </g>
   </g>
   <g id="Line3DCollection_3">
    <defs>
     <path d="
M396.878 -80.8149
L322.629 -150.01
L93.5207 -132.691" id="C2_0_098b098e96"/>
     <path d="
M397.61 -104.275
L322.981 -171.695
L92.8819 -154.825" id="C2_1_75688889de"/>
     <path d="
M398.349 -127.956
L323.335 -193.564
L92.2376 -177.153" id="C2_2_a68fb2ac61"/>
     <path d="
M399.095 -151.859
L323.693 -215.622
L91.5876 -199.677" id="C2_3_8374537c32"/>
     <path d="
M399.848 -175.989
L324.054 -237.87
L90.9318 -222.401" id="C2_4_963b385e57"/>
     <path d="
M400.609 -200.349
L324.418 -260.31
L90.2702 -245.326" id="C2_5_8c7417aa8d"/>
     <path d="
M401.376 -224.942
L324.785 -282.946
L89.6028 -268.455" id="C2_6_2d68609129"/>
     <path d="
M402.151 -249.77
L325.155 -305.78
L88.9293 -291.792" id="C2_7_6a1eedec4c"/>
    </defs>
    <use style="fill:none;stroke:#e6e6e6;" x="0.0" xlink:href="#C2_0_098b098e96" y="367.2"/>
    <use style="fill:none;stroke:#e6e6e6;" x="0.0" xlink:href="#C2_1_75688889de" y="367.2"/>
    <use style="fill:none;stroke:#e6e6e6;" x="0.0" xlink:href="#C2_2_a68fb2ac61" y="367.2"/>
    <use style="fill:none;stroke:#e6e6e6;" x="0.0" xlink:href="#C2_3_8374537c32" y="367.2"/>
    <use style="fill:none;stroke:#e6e6e6;" x="0.0" xlink:href="#C2_4_963b385e57" y="367.2"/>
    <use style="fill:none;stroke:#e6e6e6;" x="0.0" xlink:href="#C2_5_8c7417aa8d" y="367.2"/>
    <use style="fill:none;stroke:#e6e6e6;" x="0.0" xlink:href="#C2_6_2d68609129" y="367.2"/>
    <use style="fill:none;stroke:#e6e6e6;" x="0.0" xlink:href="#C2_7_6a1eedec4c" y="367.2"/>
   </g>
   <g id="xtick_13">
    <g id="line2d_16">
     <path d="
M396.227 285.779
L398.182 287.601" style="fill:none;stroke:#008000;stroke-linecap:square;"/>
    </g>
    <g id="text_16">
     <!-- −0.2 -->
     <defs>
      <path d="
M19.1875 8.29688
L53.6094 8.29688
L53.6094 0
L7.32812 0
L7.32812 8.29688
Q12.9375 14.1094 22.625 23.8906
Q32.3281 33.6875 34.8125 36.5312
Q39.5469 41.8438 41.4219 45.5312
Q43.3125 49.2188 43.3125 52.7812
Q43.3125 58.5938 39.2344 62.25
Q35.1562 65.9219 28.6094 65.9219
Q23.9688 65.9219 18.8125 64.3125
Q13.6719 62.7031 7.8125 59.4219
L7.8125 69.3906
Q13.7656 71.7812 18.9375 73
Q24.125 74.2188 28.4219 74.2188
Q39.75 74.2188 46.4844 68.5469
Q53.2188 62.8906 53.2188 53.4219
Q53.2188 48.9219 51.5312 44.8906
Q49.8594 40.875 45.4062 35.4062
Q44.1875 33.9844 37.6406 27.2188
Q31.1094 20.4531 19.1875 8.29688" id="DejaVuSans-32"/>
     </defs>
     <g style="fill:#008000;" transform="translate(401.802835084 298.625519905)scale(0.12 -0.12)">
      <use xlink:href="#DejaVuSans-2212"/>
      <use x="83.7890625" xlink:href="#DejaVuSans-30"/>
      <use x="147.412109375" xlink:href="#DejaVuSans-2e"/>
      <use x="179.19921875" xlink:href="#DejaVuSans-32"/>
     </g>
    </g>
   </g>
   <g id="xtick_14">
    <g id="line2d_17">
     <path d="
M396.956 262.334
L398.922 264.11" style="fill:none;stroke:#008000;stroke-linecap:square;"/>
    </g>
    <g id="text_17">
     <!-- 0.0 -->
     <g style="fill:#008000;" transform="translate(407.208894843 275.086310382)scale(0.12 -0.12)">
      <use xlink:href="#DejaVuSans-30"/>
      <use x="63.623046875" xlink:href="#DejaVuSans-2e"/>
      <use x="95.41015625" xlink:href="#DejaVuSans-30"/>
     </g>
    </g>
   </g>
   <g id="xtick_15">
    <g id="line2d_18">
     <path d="
M397.691 238.669
L399.668 240.398" style="fill:none;stroke:#008000;stroke-linecap:square;"/>
    </g>
    <g id="text_18">
     <!-- 0.2 -->
     <g style="fill:#008000;" transform="translate(408.239872367 251.325395174)scale(0.12 -0.12)">
      <use xlink:href="#DejaVuSans-30"/>
      <use x="63.623046875" xlink:href="#DejaVuSans-2e"/>
      <use x="95.41015625" xlink:href="#DejaVuSans-32"/>
     </g>
    </g>
   </g>
   <g id="xtick_16">
    <g id="line2d_19">
     <path d="
M398.434 214.781
L400.422 216.462" style="fill:none;stroke:#008000;stroke-linecap:square;"/>
    </g>
    <g id="text_19">
     <!-- 0.4 -->
     <defs>
      <path d="
M37.7969 64.3125
L12.8906 25.3906
L37.7969 25.3906
z

M35.2031 72.9062
L47.6094 72.9062
L47.6094 25.3906
L58.0156 25.3906
L58.0156 17.1875
L47.6094 17.1875
L47.6094 0
L37.7969 0
L37.7969 17.1875
L4.89062 17.1875
L4.89062 26.7031
z
" id="DejaVuSans-34"/>
     </defs>
     <g style="fill:#008000;" transform="translate(408.811814885 227.339627234)scale(0.12 -0.12)">
      <use xlink:href="#DejaVuSans-30"/>
      <use x="63.623046875" xlink:href="#DejaVuSans-2e"/>
      <use x="95.41015625" xlink:href="#DejaVuSans-34"/>
     </g>
    </g>
   </g>
   <g id="xtick_17">
    <g id="line2d_20">
     <path d="
M399.183 190.667
L401.182 192.3" style="fill:none;stroke:#008000;stroke-linecap:square;"/>
    </g>
    <g id="text_20">
     <!-- 0.6 -->
     <defs>
      <path d="
M33.0156 40.375
Q26.375 40.375 22.4844 35.8281
Q18.6094 31.2969 18.6094 23.3906
Q18.6094 15.5312 22.4844 10.9531
Q26.375 6.39062 33.0156 6.39062
Q39.6562 6.39062 43.5312 10.9531
Q47.4062 15.5312 47.4062 23.3906
Q47.4062 31.2969 43.5312 35.8281
Q39.6562 40.375 33.0156 40.375
M52.5938 71.2969
L52.5938 62.3125
Q48.875 64.0625 45.0938 64.9844
Q41.3125 65.9219 37.5938 65.9219
Q27.8281 65.9219 22.6719 59.3281
Q17.5312 52.7344 16.7969 39.4062
Q19.6719 43.6562 24.0156 45.9219
Q28.375 48.1875 33.5938 48.1875
Q44.5781 48.1875 50.9531 41.5156
Q57.3281 34.8594 57.3281 23.3906
Q57.3281 12.1562 50.6875 5.35938
Q44.0469 -1.42188 33.0156 -1.42188
Q20.3594 -1.42188 13.6719 8.26562
Q6.98438 17.9688 6.98438 36.375
Q6.98438 53.6562 15.1875 63.9375
Q23.3906 74.2188 37.2031 74.2188
Q40.9219 74.2188 44.7031 73.4844
Q48.4844 72.75 52.5938 71.2969" id="DejaVuSans-36"/>
     </defs>
     <g style="fill:#008000;" transform="translate(409.697334213 203.12579967)scale(0.12 -0.12)">
      <use xlink:href="#DejaVuSans-30"/>
      <use x="63.623046875" xlink:href="#DejaVuSans-2e"/>
      <use x="95.41015625" xlink:href="#DejaVuSans-36"/>
     </g>
    </g>
   </g>
   <g id="xtick_18">
    <g id="line2d_21">
     <path d="
M399.939 166.324
L401.95 167.907" style="fill:none;stroke:#008000;stroke-linecap:square;"/>
    </g>
    <g id="text_21">
     <!-- 0.8 -->
     <defs>
      <path d="
M31.7812 34.625
Q24.75 34.625 20.7188 30.8594
Q16.7031 27.0938 16.7031 20.5156
Q16.7031 13.9219 20.7188 10.1562
Q24.75 6.39062 31.7812 6.39062
Q38.8125 6.39062 42.8594 10.1719
Q46.9219 13.9688 46.9219 20.5156
Q46.9219 27.0938 42.8906 30.8594
Q38.875 34.625 31.7812 34.625
M21.9219 38.8125
Q15.5781 40.375 12.0312 44.7188
Q8.5 49.0781 8.5 55.3281
Q8.5 64.0625 14.7188 69.1406
Q20.9531 74.2188 31.7812 74.2188
Q42.6719 74.2188 48.875 69.1406
Q55.0781 64.0625 55.0781 55.3281
Q55.0781 49.0781 51.5312 44.7188
Q48 40.375 41.7031 38.8125
Q48.8281 37.1562 52.7969 32.3125
Q56.7812 27.4844 56.7812 20.5156
Q56.7812 9.90625 50.3125 4.23438
Q43.8438 -1.42188 31.7812 -1.42188
Q19.7344 -1.42188 13.25 4.23438
Q6.78125 9.90625 6.78125 20.5156
Q6.78125 27.4844 10.7812 32.3125
Q14.7969 37.1562 21.9219 38.8125
M18.3125 54.3906
Q18.3125 48.7344 21.8438 45.5625
Q25.3906 42.3906 31.7812 42.3906
Q38.1406 42.3906 41.7188 45.5625
Q45.3125 48.7344 45.3125 54.3906
Q45.3125 60.0625 41.7188 63.2344
Q38.1406 66.4062 31.7812 66.4062
Q25.3906 66.4062 21.8438 63.2344
Q18.3125 60.0625 18.3125 54.3906" id="DejaVuSans-38"/>
     </defs>
     <g style="fill:#008000;" transform="translate(410.582481802 178.680644319)scale(0.12 -0.12)">
      <use xlink:href="#DejaVuSans-30"/>
      <use x="63.623046875" xlink:href="#DejaVuSans-2e"/>
      <use x="95.41015625" xlink:href="#DejaVuSans-38"/>
     </g>
    </g>
   </g>
   <g id="xtick_19">
    <g id="line2d_22">
     <path d="
M400.703 141.749
L402.725 143.28" style="fill:none;stroke:#008000;stroke-linecap:square;"/>
    </g>
    <g id="text_22">
     <!-- 1.0 -->
     <g style="fill:#008000;" transform="translate(411.694248792 154.000830268)scale(0.12 -0.12)">
      <use xlink:href="#DejaVuSans-31"/>
      <use x="63.623046875" xlink:href="#DejaVuSans-2e"/>
      <use x="95.41015625" xlink:href="#DejaVuSans-30"/>
     </g>
    </g>
   </g>
   <g id="xtick_20">
    <g id="line2d_23">
     <path d="
M401.474 116.937
L403.508 118.417" style="fill:none;stroke:#008000;stroke-linecap:square;"/>
    </g>
    <g id="text_23">
     <!-- 1.2 -->
     <g style="fill:#008000;" transform="translate(412.765566063 129.082962352)scale(0.12 -0.12)">
      <use xlink:href="#DejaVuSans-31"/>
      <use x="63.623046875" xlink:href="#DejaVuSans-2e"/>
      <use x="95.41015625" xlink:href="#DejaVuSans-32"/>
     </g>
    </g>
   </g>
  </g>
  <g id="axes_1">
   <g id="Patch3DCollection_1">
    <defs>
     <path d="
M3.06162e-16 -5
L-1.12257 -1.54508
L-4.75528 -1.54508
L-1.81636 0.59017
L-2.93893 4.04508
L-3.5083e-16 1.90983
L2.93893 4.04508
L1.81636 0.59017
L4.75528 -1.54508
L1.12257 -1.54508
z
" id="C3_0_2f6885a0d4"/>
    </defs>
    <g clip-path="url(#p11fa2e705c)">
     <use style="fill:#008000;stroke:#008000;" x="163.997920436" xlink:href="#C3_0_2f6885a0d4" y="241.885967566"/>
    </g>
   </g>
   <g id="Patch3DCollection_2">
    <defs>
     <path d="
M3.06162e-16 -5
L-1.12257 -1.54508
L-4.75528 -1.54508
L-1.81636 0.59017
L-2.93893 4.04508
L-3.5083e-16 1.90983
L2.93893 4.04508
L1.81636 0.59017
L4.75528 -1.54508
L1.12257 -1.54508
z
" id="C4_0_2f6885a0d4"/>
    </defs>
    <g clip-path="url(#p11fa2e705c)">
     <use style="fill:#ff0000;stroke:#ff0000;" x="266.033403654" xlink:href="#C4_0_2f6885a0d4" y="89.0245468605"/>
    </g>
   </g>
   <g id="Patch3DCollection_3">
    <defs>
     <path d="
M3.06162e-16 -5
L-1.12257 -1.54508
L-4.75528 -1.54508
L-1.81636 0.59017
L-2.93893 4.04508
L-3.5083e-16 1.90983
L2.93893 4.04508
L1.81636 0.59017
L4.75528 -1.54508
L1.12257 -1.54508
z
" id="C5_0_2f6885a0d4"/>
    </defs>
    <g clip-path="url(#p11fa2e705c)">
     <use style="fill:#0000ff;stroke:#0000ff;" x="332.873120744" xlink:href="#C5_0_2f6885a0d4" y="94.2023333012"/>
    </g>
   </g>
   <g id="line2d_24">
    <path clip-path="url(#p11fa2e705c)" d="
M322.036 135.3
L381.562 131.314" style="fill:none;stroke:#0000ff;stroke-dasharray:1.000000,3.000000;stroke-dashoffset:0.0;"/>
   </g>
   <g id="line2d_25">
    <path clip-path="url(#p11fa2e705c)" d="
M353.888 228.02
L381.562 131.314" style="fill:none;stroke:#0000ff;stroke-linecap:square;stroke-width:2;"/>
   </g>
   <g id="line2d_26">
    <path clip-path="url(#p11fa2e705c)" d="
M161.944 104.922
L332.873 94.2023" style="fill:none;stroke:#0000ff;stroke-dasharray:1.000000,3.000000;stroke-dashoffset:0.0;"/>
   </g>
   <g id="line2d_27">
    <path clip-path="url(#p11fa2e705c)" d="
M353.888 228.02
L332.873 94.2023" style="fill:none;stroke:#0000ff;stroke-linecap:square;stroke-width:2;"/>
   </g>
   <g id="line2d_28">
    <path clip-path="url(#p11fa2e705c)" d="
M200.704 143.426
L381.562 131.314" style="fill:none;stroke:#0000ff;stroke-dasharray:1.000000,3.000000;stroke-dashoffset:0.0;"/>
   </g>
   <g id="line2d_29">
    <path clip-path="url(#p11fa2e705c)" d="
M353.888 228.02
L381.562 131.314" style="fill:none;stroke:#0000ff;stroke-linecap:square;stroke-width:2;"/>
   </g>
   <g id="line2d_30">
    <path clip-path="url(#p11fa2e705c)" d="
M322.036 135.3
L266.033 89.0245" style="fill:none;stroke:#ff0000;stroke-dasharray:1.000000,3.000000;stroke-dashoffset:0.0;"/>
   </g>
   <g id="line2d_31">
    <path clip-path="url(#p11fa2e705c)" d="
M154.856 209.187
L266.033 89.0245" style="fill:none;stroke:#ff0000;stroke-linecap:square;stroke-width:2;"/>
   </g>
   <g id="line2d_32">
    <path clip-path="url(#p11fa2e705c)" d="
M161.944 104.922
L152.967 96.0049" style="fill:none;stroke:#ff0000;stroke-dasharray:1.000000,3.000000;stroke-dashoffset:0.0;"/>
   </g>
   <g id="line2d_33">
    <path clip-path="url(#p11fa2e705c)" d="
M154.856 209.187
L152.967 96.0049" style="fill:none;stroke:#ff0000;stroke-linecap:square;stroke-width:2;"/>
   </g>
   <g id="line2d_34">
    <path clip-path="url(#p11fa2e705c)" d="
M200.704 143.426
L152.967 96.0049" style="fill:none;stroke:#ff0000;stroke-dasharray:1.000000,3.000000;stroke-dashoffset:0.0;"/>
   </g>
   <g id="line2d_35">
    <path clip-path="url(#p11fa2e705c)" d="
M154.856 209.187
L152.967 96.0049" style="fill:none;stroke:#ff0000;stroke-linecap:square;stroke-width:2;"/>
   </g>
   <g id="line2d_36">
    <path clip-path="url(#p11fa2e705c)" d="
M322.036 135.3
L319.774 278.103" style="fill:none;stroke:#008000;stroke-dasharray:1.000000,3.000000;stroke-dashoffset:0.0;"/>
   </g>
   <g id="line2d_37">
    <path clip-path="url(#p11fa2e705c)" d="
M182.334 264.143
L319.774 278.103" style="fill:none;stroke:#008000;stroke-linecap:square;stroke-width:2;"/>
   </g>
   <g id="line2d_38">
    <path clip-path="url(#p11fa2e705c)" d="
M161.944 104.922
L163.998 241.886" style="fill:none;stroke:#008000;stroke-dasharray:1.000000,3.000000;stroke-dashoffset:0.0;"/>
   </g>
   <g id="line2d_39">
    <path clip-path="url(#p11fa2e705c)" d="
M182.334 264.143
L163.998 241.886" style="fill:none;stroke:#008000;stroke-linecap:square;stroke-width:2;"/>
   </g>
   <g id="line2d_40">
    <path clip-path="url(#p11fa2e705c)" d="
M200.704 143.426
L201.802 287.775" style="fill:none;stroke:#008000;stroke-dasharray:1.000000,3.000000;stroke-dashoffset:0.0;"/>
   </g>
   <g id="line2d_41">
    <path clip-path="url(#p11fa2e705c)" d="
M182.334 264.143
L201.802 287.775" style="fill:none;stroke:#008000;stroke-linecap:square;stroke-width:2;"/>
   </g>
   <g id="line2d_42">
    <path clip-path="url(#p11fa2e705c)" d="
M182.072 241.247
L279.181 250.816" style="fill:none;stroke:#bfbf00;stroke-linecap:square;stroke-width:2;"/>
   </g>
   <g id="line2d_43">
    <path clip-path="url(#p11fa2e705c)" d="
M182.072 241.247
L249.127 219.744" style="fill:none;stroke:#bfbf00;stroke-linecap:square;stroke-width:2;"/>
   </g>
   <g id="line2d_44">
    <path clip-path="url(#p11fa2e705c)" d="
M182.072 241.247
L180.727 123.581" style="fill:none;stroke:#bfbf00;stroke-linecap:square;stroke-width:2;"/>
   </g>
   <g id="Patch3DCollection_4">
    <defs>
     <path d="
M3.06162e-16 -5
L-1.12257 -1.54508
L-4.75528 -1.54508
L-1.81636 0.59017
L-2.93893 4.04508
L-3.5083e-16 1.90983
L2.93893 4.04508
L1.81636 0.59017
L4.75528 -1.54508
L1.12257 -1.54508
z
" id="C6_0_2f6885a0d4"/>
    </defs>
    <g clip-path="url(#p11fa2e705c)">
     <use style="fill:#ff0000;stroke:#ff0000;" x="152.966810845" xlink:href="#C6_0_2f6885a0d4" y="96.0048540653"/>
    </g>
   </g>
   <g id="text_24">
    <!-- $[1,1]^T$ -->
    <defs>
     <path d="
M2.20312 -25
L2.20312 -21
L11.9219 -21
L11.9219 71
L2.20312 71
L2.20312 75
L15.9219 75
L15.9219 -25
z
" id="Cmr10-5d"/>
     <path d="
M4.59375 1.3125
Q4.64062 1.5625 4.8125 2.1875
Q4.98438 2.82812 5.25 3.17188
Q5.51562 3.51562 6 3.51562
Q14.5938 3.51562 17.3906 4
Q20.0625 4.6875 20.6094 6.89062
L34.2812 61.8125
Q34.7188 63.0312 34.7188 64.0156
Q34.7188 64.7969 31.2031 64.7969
L25.3906 64.7969
Q18.7031 64.7969 15.0625 62.7344
Q11.4219 60.6875 9.71875 57.3125
Q8.01562 53.9531 5.32812 46.2969
Q4.98438 45.4062 4.29688 45.4062
L3.42188 45.4062
Q2.39062 45.4062 2.39062 46.6875
L9.51562 67.3906
Q9.71875 68.3125 10.5 68.3125
L69.5781 68.3125
Q70.6094 68.3125 70.6094 67
L67.2812 46.2969
Q67.2812 46 66.9375 45.7031
Q66.6094 45.4062 66.3125 45.4062
L65.375 45.4062
Q64.4062 45.4062 64.4062 46.6875
Q65.4844 53.7656 65.4844 56.6875
Q65.4844 60.2031 64.0156 62
Q62.5469 63.8125 60.2031 64.2969
Q57.8594 64.7969 54.1094 64.7969
L48.1875 64.7969
Q45.5156 64.7969 44.5781 64.2969
Q43.6562 63.8125 43.0156 61.375
L29.2969 6.5
Q29.25 6.29688 29.2188 6.09375
Q29.2031 5.90625 29.1094 5.60938
Q29.1094 4.34375 30.6094 4
Q33.2031 3.51562 41.7031 3.51562
Q42.6719 3.51562 42.6719 2.20312
Q42.3281 0.78125 42.125 0.390625
Q41.9375 0 41.0156 0
L5.60938 0
Q4.59375 0 4.59375 1.3125" id="Cmmi10-54"/>
     <path d="
M9.90625 -18.0156
Q9.90625 -17.5781 10.2969 -17.1875
Q13.9219 -13.7188 15.9219 -9.17188
Q17.9219 -4.64062 17.9219 0.390625
L17.9219 1.60938
Q16.3125 0 13.9219 0
Q11.625 0 10.0156 1.60938
Q8.40625 3.21875 8.40625 5.51562
Q8.40625 7.85938 10.0156 9.42188
Q11.625 10.9844 13.9219 10.9844
Q17.4844 10.9844 19 7.6875
Q20.5156 4.39062 20.5156 0.390625
Q20.5156 -5.17188 18.2812 -10.1719
Q16.0625 -15.1875 12.0156 -19.1875
Q11.625 -19.3906 11.375 -19.3906
Q10.8906 -19.3906 10.3906 -18.9375
Q9.90625 -18.5 9.90625 -18.0156" id="Cmmi10-3b"/>
     <path d="
M11.8125 -25
L11.8125 75
L25.4844 75
L25.4844 71
L15.8281 71
L15.8281 -21
L25.4844 -21
L25.4844 -25
z
" id="Cmr10-5b"/>
    </defs>
    <g transform="translate(360.915215733 118.780551873)scale(0.16 -0.16)">
     <use transform="translate(0.0 0.690625)" xlink:href="#Cmr10-5b"/>
     <use transform="translate(27.685546875 0.690625)" xlink:href="#Cmr10-31"/>
     <use transform="translate(77.685546875 0.690625)" xlink:href="#Cmmi10-3b"/>
     <use transform="translate(107.353515625 0.690625)" xlink:href="#Cmr10-31"/>
     <use transform="translate(157.353515625 0.690625)" xlink:href="#Cmr10-5d"/>
     <use transform="translate(185.0390625 50.18125)scale(0.7)" xlink:href="#Cmmi10-54"/>
    </g>
   </g>
   <g id="text_25">
    <!-- $[-1,1]^T$ -->
    <defs>
     <path d="
M10.2031 23
Q9.375 23 8.82812 23.625
Q8.29688 24.2656 8.29688 25
Q8.29688 25.7344 8.82812 26.3594
Q9.375 27 10.2031 27
L67.5781 27
Q68.3594 27 68.875 26.3594
Q69.3906 25.7344 69.3906 25
Q69.3906 24.2656 68.875 23.625
Q68.3594 23 67.5781 23
z
" id="Cmsy10-a1"/>
    </defs>
    <g transform="translate(305.897068339 82.1129970059)scale(0.16 -0.16)">
     <use transform="translate(0.0 0.690625)" xlink:href="#Cmr10-5b"/>
     <use transform="translate(27.685546875 0.690625)" xlink:href="#Cmsy10-a1"/>
     <use transform="translate(105.37109375 0.690625)" xlink:href="#Cmr10-31"/>
     <use transform="translate(155.37109375 0.690625)" xlink:href="#Cmmi10-3b"/>
     <use transform="translate(185.0390625 0.690625)" xlink:href="#Cmr10-31"/>
     <use transform="translate(235.0390625 0.690625)" xlink:href="#Cmr10-5d"/>
     <use transform="translate(262.724609375 50.18125)scale(0.7)" xlink:href="#Cmmi10-54"/>
    </g>
   </g>
   <g id="text_26">
    <g id="patch_9">
     <path d="
M267.871 260.026
L290.491 260.026
L290.491 241.606
L267.871 241.606
z
" style="fill:#bfbf00;stroke:#bfbf00;"/>
    </g>
    <!-- $b_0^n$ -->
    <defs>
     <path d="
M7.71875 1.70312
Q7.71875 2.29688 7.8125 2.59375
L15.2812 32.4219
Q16.0156 35.2031 16.0156 37.3125
Q16.0156 41.6094 13.0938 41.6094
Q9.96875 41.6094 8.45312 37.8594
Q6.9375 34.125 5.51562 28.4219
Q5.51562 28.125 5.21875 27.9531
Q4.9375 27.7812 4.6875 27.7812
L3.51562 27.7812
Q3.17188 27.7812 2.92188 28.1406
Q2.6875 28.5156 2.6875 28.8125
Q3.76562 33.1562 4.76562 36.1719
Q5.76562 39.2031 7.89062 41.6875
Q10.0156 44.1875 13.1875 44.1875
Q16.9375 44.1875 19.8125 41.8125
Q22.7031 39.4531 22.7031 35.7969
Q25.6875 39.7031 29.6875 41.9375
Q33.6875 44.1875 38.1875 44.1875
Q41.75 44.1875 44.3281 42.9688
Q46.9219 41.75 48.3594 39.2812
Q49.8125 36.8125 49.8125 33.4062
Q49.8125 29.2969 47.9688 23.4844
Q46.1406 17.6719 43.4062 10.5
Q42 7.23438 42 4.5
Q42 1.51562 44.2812 1.51562
Q48.1875 1.51562 50.7969 5.70312
Q53.4219 9.90625 54.5 14.7031
Q54.6875 15.2812 55.3281 15.2812
L56.5 15.2812
Q56.8906 15.2812 57.1562 15.0312
Q57.4219 14.7969 57.4219 14.4062
Q57.4219 14.3125 57.3281 14.1094
Q55.9531 8.45312 52.5625 3.65625
Q49.1719 -1.125 44.0938 -1.125
Q40.5781 -1.125 38.0781 1.29688
Q35.5938 3.71875 35.5938 7.17188
Q35.5938 9.03125 36.375 11.0781
Q37.6406 14.3594 39.2812 18.8906
Q40.9219 23.4375 41.9688 27.5781
Q43.0156 31.7344 43.0156 34.9062
Q43.0156 37.7031 41.8594 39.6562
Q40.7188 41.6094 37.9844 41.6094
Q34.3281 41.6094 31.25 39.9844
Q28.1719 38.375 25.875 35.7188
Q23.5781 33.0625 21.6875 29.3906
L14.8906 2.20312
Q14.5469 0.828125 13.3438 -0.140625
Q12.1562 -1.125 10.6875 -1.125
Q9.46875 -1.125 8.59375 -0.34375
Q7.71875 0.4375 7.71875 1.70312" id="Cmmi10-6e"/>
    </defs>
    <g transform="translate(269.87095599 254.106139724)scale(0.14 -0.14)">
     <use transform="translate(0.0 0.1875)" xlink:href="#Cmmi10-62"/>
     <use transform="translate(55.410234375 44.06875)scale(0.7)" xlink:href="#Cmmi10-6e"/>
     <use transform="translate(42.919921875 -25.321875)scale(0.7)" xlink:href="#Cmr10-30"/>
    </g>
   </g>
   <g id="text_27">
    <g id="patch_10">
     <path d="
M237.817 228.814
L260.437 228.814
L260.437 210.674
L237.817 210.674
z
" style="fill:#bfbf00;stroke:#bfbf00;"/>
    </g>
    <!-- $b_1^n$ -->
    <g transform="translate(239.816858465 223.174320626)scale(0.14 -0.14)">
     <use transform="translate(0.0 0.1875)" xlink:href="#Cmmi10-62"/>
     <use transform="translate(55.410234375 44.06875)scale(0.7)" xlink:href="#Cmmi10-6e"/>
     <use transform="translate(42.919921875 -25.321875)scale(0.7)" xlink:href="#Cmr10-31"/>
    </g>
   </g>
   <g id="text_28">
    <g id="patch_11">
     <path d="
M169.417 132.651
L192.037 132.651
L192.037 114.511
L169.417 114.511
z
" style="fill:#bfbf00;stroke:#bfbf00;"/>
    </g>
    <!-- $b_2^n$ -->
    <g transform="translate(171.416893635 127.01146228)scale(0.14 -0.14)">
     <use transform="translate(0.0 0.1875)" xlink:href="#Cmmi10-62"/>
     <use transform="translate(55.410234375 44.06875)scale(0.7)" xlink:href="#Cmmi10-6e"/>
     <use transform="translate(42.919921875 -25.321875)scale(0.7)" xlink:href="#Cmr10-32"/>
    </g>
   </g>
   <g id="Patch3DCollection_5">
    <defs>
     <path d="
M3.06162e-16 -5
L-1.12257 -1.54508
L-4.75528 -1.54508
L-1.81636 0.59017
L-2.93893 4.04508
L-3.5083e-16 1.90983
L2.93893 4.04508
L1.81636 0.59017
L4.75528 -1.54508
L1.12257 -1.54508
z
" id="C7_0_2f6885a0d4"/>
    </defs>
    <g clip-path="url(#p11fa2e705c)">
     <use style="fill:#ff0000;stroke:#ff0000;" x="152.966810845" xlink:href="#C7_0_2f6885a0d4" y="96.0048540653"/>
    </g>
   </g>
   <g id="Patch3DCollection_6">
    <defs>
     <path d="
M0 3.16228
C0.838646 3.16228 1.64306 2.82908 2.23607 2.23607
C2.82908 1.64306 3.16228 0.838646 3.16228 0
C3.16228 -0.838646 2.82908 -1.64306 2.23607 -2.23607
C1.64306 -2.82908 0.838646 -3.16228 0 -3.16228
C-0.838646 -3.16228 -1.64306 -2.82908 -2.23607 -2.23607
C-2.82908 -1.64306 -3.16228 -0.838646 -3.16228 0
C-3.16228 0.838646 -2.82908 1.64306 -2.23607 2.23607
C-1.64306 2.82908 -0.838646 3.16228 0 3.16228
z
" id="C8_0_b69519a06d"/>
    </defs>
    <g clip-path="url(#p11fa2e705c)">
     <use style="stroke:#000000;" x="161.943735562" xlink:href="#C8_0_b69519a06d" y="104.922447639"/>
    </g>
   </g>
   <g id="Patch3DCollection_7">
    <defs>
     <path d="
M3.06162e-16 -5
L-1.12257 -1.54508
L-4.75528 -1.54508
L-1.81636 0.59017
L-2.93893 4.04508
L-3.5083e-16 1.90983
L2.93893 4.04508
L1.81636 0.59017
L4.75528 -1.54508
L1.12257 -1.54508
z
" id="C9_0_2f6885a0d4"/>
    </defs>
    <g clip-path="url(#p11fa2e705c)">
     <use style="fill:#008000;stroke:#008000;" x="319.773742003" xlink:href="#C9_0_2f6885a0d4" y="278.10307648"/>
    </g>
   </g>
   <g id="Patch3DCollection_8">
    <defs>
     <path d="
M3.06162e-16 -5
L-1.12257 -1.54508
L-4.75528 -1.54508
L-1.81636 0.59017
L-2.93893 4.04508
L-3.5083e-16 1.90983
L2.93893 4.04508
L1.81636 0.59017
L4.75528 -1.54508
L1.12257 -1.54508
z
" id="Ca_0_2f6885a0d4"/>
    </defs>
    <g clip-path="url(#p11fa2e705c)">
     <use style="fill:#008000;stroke:#008000;" x="201.802108384" xlink:href="#Ca_0_2f6885a0d4" y="287.774502357"/>
    </g>
   </g>
   <g id="Patch3DCollection_9">
    <defs>
     <path d="
M3.06162e-16 -5
L-1.12257 -1.54508
L-4.75528 -1.54508
L-1.81636 0.59017
L-2.93893 4.04508
L-3.5083e-16 1.90983
L2.93893 4.04508
L1.81636 0.59017
L4.75528 -1.54508
L1.12257 -1.54508
z
" id="Cb_0_2f6885a0d4"/>
    </defs>
    <g clip-path="url(#p11fa2e705c)">
     <use style="fill:#0000ff;stroke:#0000ff;" x="381.562072219" xlink:href="#Cb_0_2f6885a0d4" y="131.313959959"/>
    </g>
   </g>
   <g id="Patch3DCollection_10">
    <defs>
     <path d="
M3.06162e-16 -5
L-1.12257 -1.54508
L-4.75528 -1.54508
L-1.81636 0.59017
L-2.93893 4.04508
L-3.5083e-16 1.90983
L2.93893 4.04508
L1.81636 0.59017
L4.75528 -1.54508
L1.12257 -1.54508
z
" id="Cc_0_2f6885a0d4"/>
    </defs>
    <g clip-path="url(#p11fa2e705c)">
     <use style="fill:#0000ff;stroke:#0000ff;" x="381.562072219" xlink:href="#Cc_0_2f6885a0d4" y="131.313959959"/>
    </g>
   </g>
   <g id="Patch3DCollection_11">
    <defs>
     <path d="
M0 3.16228
C0.838646 3.16228 1.64306 2.82908 2.23607 2.23607
C2.82908 1.64306 3.16228 0.838646 3.16228 0
C3.16228 -0.838646 2.82908 -1.64306 2.23607 -2.23607
C1.64306 -2.82908 0.838646 -3.16228 0 -3.16228
C-0.838646 -3.16228 -1.64306 -2.82908 -2.23607 -2.23607
C-2.82908 -1.64306 -3.16228 -0.838646 -3.16228 0
C-3.16228 0.838646 -2.82908 1.64306 -2.23607 2.23607
C-1.64306 2.82908 -0.838646 3.16228 0 3.16228
z
" id="Cd_0_b69519a06d"/>
    </defs>
    <g clip-path="url(#p11fa2e705c)">
     <use style="stroke:#000000;" x="322.036078034" xlink:href="#Cd_0_b69519a06d" y="135.300453224"/>
    </g>
   </g>
   <g id="line2d_45">
    <path clip-path="url(#p11fa2e705c)" d="
M182.072 241.247
L322.036 135.3" style="fill:none;stroke:#000000;stroke-linecap:square;stroke-width:2;"/>
   </g>
   <g id="line2d_46">
    <path clip-path="url(#p11fa2e705c)" d="
M182.072 241.247
L161.944 104.922" style="fill:none;stroke:#000000;stroke-linecap:square;stroke-width:2;"/>
   </g>
   <g id="line2d_47">
    <path clip-path="url(#p11fa2e705c)" d="
M182.072 241.247
L200.704 143.426" style="fill:none;stroke:#000000;stroke-linecap:square;stroke-width:2;"/>
   </g>
   <g id="Patch3DCollection_12">
    <defs>
     <path d="
M0 3.16228
C0.838646 3.16228 1.64306 2.82908 2.23607 2.23607
C2.82908 1.64306 3.16228 0.838646 3.16228 0
C3.16228 -0.838646 2.82908 -1.64306 2.23607 -2.23607
C1.64306 -2.82908 0.838646 -3.16228 0 -3.16228
C-0.838646 -3.16228 -1.64306 -2.82908 -2.23607 -2.23607
C-2.82908 -1.64306 -3.16228 -0.838646 -3.16228 0
C-3.16228 0.838646 -2.82908 1.64306 -2.23607 2.23607
C-1.64306 2.82908 -0.838646 3.16228 0 3.16228
z
" id="Ce_0_b69519a06d"/>
    </defs>
    <g clip-path="url(#p11fa2e705c)">
     <use style="stroke:#000000;" x="200.703627237" xlink:href="#Ce_0_b69519a06d" y="143.426163757"/>
    </g>
   </g>
   <g id="text_29">
    <g id="patch_12">
     <path d="
M316.536 144.075
L327.536 144.075
L327.536 126.526
L316.536 126.526
z
" style="fill:#fcffc9;stroke:#fcffc9;"/>
    </g>
    <!-- $1$ -->
    <g transform="translate(318.536078034 139.163578224)scale(0.14 -0.14)">
     <use transform="translate(0.0 0.390625)" xlink:href="#Cmr10-31"/>
    </g>
   </g>
   <g id="text_30">
    <g id="patch_13">
     <path d="
M157.354 113.697
L166.534 113.697
L166.534 96.1478
L157.354 96.1478
z
" style="fill:#fcffc9;stroke:#fcffc9;"/>
    </g>
    <!-- $t$ -->
    <defs>
     <path d="
M6.20312 8.10938
Q6.20312 9.57812 6.5 10.8906
L13.7188 39.5938
L3.21875 39.5938
Q2.20312 39.5938 2.20312 40.9219
Q2.59375 43.1094 3.51562 43.1094
L14.5938 43.1094
L18.6094 59.4219
Q19 60.75 20.1719 61.6719
Q21.3438 62.5938 22.7969 62.5938
Q24.0781 62.5938 24.9219 61.8281
Q25.7812 61.0781 25.7812 59.8125
Q25.7812 59.5156 25.75 59.3438
Q25.7344 59.1875 25.6875 58.9844
L21.6875 43.1094
L31.9844 43.1094
Q33.0156 43.1094 33.0156 41.7969
Q32.9531 41.5469 32.8125 40.9531
Q32.6719 40.375 32.4219 39.9844
Q32.1719 39.5938 31.6875 39.5938
L20.7969 39.5938
L13.625 10.6875
Q12.8906 7.85938 12.8906 5.8125
Q12.8906 1.51562 15.8281 1.51562
Q20.2188 1.51562 23.6094 5.64062
Q27 9.76562 28.8125 14.7031
Q29.2031 15.2812 29.5938 15.2812
L30.8125 15.2812
Q31.2031 15.2812 31.4375 15.0156
Q31.6875 14.75 31.6875 14.4062
Q31.6875 14.2031 31.5938 14.1094
Q29.3906 8.0625 25.1875 3.46875
Q21 -1.125 15.5781 -1.125
Q11.625 -1.125 8.90625 1.45312
Q6.20312 4.04688 6.20312 8.10938" id="Cmmi10-74"/>
    </defs>
    <g transform="translate(159.353735562 108.785572639)scale(0.14 -0.14)">
     <use transform="translate(0.0 0.40625)" xlink:href="#Cmmi10-74"/>
    </g>
   </g>
   <g id="text_31">
    <g id="patch_14">
     <path d="
M191.424 152.201
L209.984 152.201
L209.984 134.651
L191.424 134.651
z
" style="fill:#fcffc9;stroke:#fcffc9;"/>
    </g>
    <!-- $t^2$ -->
    <g transform="translate(193.423627237 147.289288757)scale(0.14 -0.14)">
     <use transform="translate(0.0 0.8578125)" xlink:href="#Cmmi10-74"/>
     <use transform="translate(36.083984375 43.3734375)scale(0.7)" xlink:href="#Cmr10-32"/>
    </g>
   </g>
  </g>
 </g>
 <defs>
  <clipPath id="p11fa2e705c">
   <rect height="345.6" width="446.4" x="10.8" y="10.8"/>
  </clipPath>
 </defs>
</svg>
